<?xml version="1.0" encoding="utf-8"?>
<svg xmlns="http://www.w3.org/2000/svg" fill="none" version="1.1" viewBox="-1 -29.3465 540.583 129.982" x="-1pt" y="-29.3465pt" width="540.583pt" height="129.982pt" stroke-width="0.566929" stroke-miterlimit="10.000000">
 <path d="M0 -0L0 -28.3465L28.3465 -28.3465L28.3465 -0L0 -0" stroke="black"/>
 <path d="M10.6614 -9.55057L17.685 -9.55057"/>
 <g transform="matrix(1.000000,-0.000000,-0.000000,1.000000,14.173228,-9.550573)">
  <path d="M-2.92358 -0M2.91532 -4.59078C2.91532 -5.78152 2.84359 -6.94356 2.32712 -8.03387C1.73893 -9.2246 0.706003 -9.54022 0.00303899 -9.54022C-0.82904 -9.54022 -1.84762 -9.12418 -2.37843 -7.93345C-2.78012 -7.02964 -2.92358 -6.14017 -2.92358 -4.59078C-2.92358 -3.1992 -2.82316 -2.15193 -2.3067 -1.13335C-1.7472 -0.0430386 -0.757309 0.30127 -0.0113072 0.30127C1.23681 0.30127 1.95412 -0.444732 2.37016 -1.27681C2.88662 -2.35278 2.91532 -3.7587 2.91532 -4.59078ZM2.91532 -4.59078M-0.0113072 0.0143462C-0.470385 0.0143462 -1.40289 -0.243885 -1.67547 -1.80762C-1.83327 -2.66839 -1.83327 -3.7587 -1.83327 -4.76294C-1.83327 -5.93933 -1.83327 -7.00094 -1.60373 -7.84737C-1.35985 -8.80856 -0.628194 -9.2533 -0.0113072 -9.2533C0.533848 -9.2533 1.36593 -8.92333 1.63851 -7.68956C1.82501 -6.87183 1.82501 -5.73848 1.82501 -4.76294C1.82501 -3.80174 1.82501 -2.71143 1.6672 -1.83631C1.39462 -0.258232 0.49081 0.0143462 -0.0113072 0.0143462ZM-0.0113072 0.0143462" fill="black"/>
 </g>
 <path d="M28.3465 -0L28.3465 -28.3465L56.6929 -28.3465L56.6929 -0L28.3465 -0" stroke="black"/>
 <path d="M39.0079 -9.55057L46.0315 -9.55057"/>
 <g transform="matrix(1.000000,-0.000000,-0.000000,1.000000,42.519685,-9.550573)">
  <path d="M-2.92358 -0M2.91532 -4.59078C2.91532 -5.78152 2.84359 -6.94356 2.32712 -8.03387C1.73893 -9.2246 0.706003 -9.54022 0.00303899 -9.54022C-0.82904 -9.54022 -1.84762 -9.12418 -2.37843 -7.93345C-2.78012 -7.02964 -2.92358 -6.14017 -2.92358 -4.59078C-2.92358 -3.1992 -2.82316 -2.15193 -2.3067 -1.13335C-1.7472 -0.0430386 -0.757309 0.30127 -0.0113072 0.30127C1.23681 0.30127 1.95412 -0.444732 2.37016 -1.27681C2.88662 -2.35278 2.91532 -3.7587 2.91532 -4.59078ZM2.91532 -4.59078M-0.0113072 0.0143462C-0.470385 0.0143462 -1.40289 -0.243885 -1.67547 -1.80762C-1.83327 -2.66839 -1.83327 -3.7587 -1.83327 -4.76294C-1.83327 -5.93933 -1.83327 -7.00094 -1.60373 -7.84737C-1.35985 -8.80856 -0.628194 -9.2533 -0.0113072 -9.2533C0.533848 -9.2533 1.36593 -8.92333 1.63851 -7.68956C1.82501 -6.87183 1.82501 -5.73848 1.82501 -4.76294C1.82501 -3.80174 1.82501 -2.71143 1.6672 -1.83631C1.39462 -0.258232 0.49081 0.0143462 -0.0113072 0.0143462ZM-0.0113072 0.0143462" fill="black"/>
 </g>
 <path d="M56.6929 -0L56.6929 -28.3465L85.0394 -28.3465L85.0394 -0L56.6929 -0" stroke="black"/>
 <path d="M67.3544 -9.55057L74.3779 -9.55057"/>
 <g transform="matrix(1.000000,-0.000000,-0.000000,1.000000,70.866142,-9.550573)">
  <path d="M-2.92358 -0M2.91532 -4.59078C2.91532 -5.78152 2.84359 -6.94356 2.32712 -8.03387C1.73893 -9.2246 0.706003 -9.54022 0.00303899 -9.54022C-0.82904 -9.54022 -1.84762 -9.12418 -2.37843 -7.93345C-2.78012 -7.02964 -2.92358 -6.14017 -2.92358 -4.59078C-2.92358 -3.1992 -2.82316 -2.15193 -2.3067 -1.13335C-1.7472 -0.0430386 -0.757309 0.30127 -0.0113072 0.30127C1.23681 0.30127 1.95412 -0.444732 2.37016 -1.27681C2.88662 -2.35278 2.91532 -3.7587 2.91532 -4.59078ZM2.91532 -4.59078M-0.0113072 0.0143462C-0.470385 0.0143462 -1.40289 -0.243885 -1.67547 -1.80762C-1.83327 -2.66839 -1.83327 -3.7587 -1.83327 -4.76294C-1.83327 -5.93933 -1.83327 -7.00094 -1.60373 -7.84737C-1.35985 -8.80856 -0.628194 -9.2533 -0.0113072 -9.2533C0.533848 -9.2533 1.36593 -8.92333 1.63851 -7.68956C1.82501 -6.87183 1.82501 -5.73848 1.82501 -4.76294C1.82501 -3.80174 1.82501 -2.71143 1.6672 -1.83631C1.39462 -0.258232 0.49081 0.0143462 -0.0113072 0.0143462ZM-0.0113072 0.0143462" fill="black"/>
 </g>
 <path d="M85.0394 -0L85.0394 -28.3465L113.386 -28.3465L113.386 -0L85.0394 -0" stroke="black"/>
 <path d="M95.7008 -9.55057L102.724 -9.55057"/>
 <g transform="matrix(1.000000,-0.000000,-0.000000,1.000000,99.212598,-9.550573)">
  <path d="M-2.92358 -0M2.91532 -4.59078C2.91532 -5.78152 2.84359 -6.94356 2.32712 -8.03387C1.73893 -9.2246 0.706003 -9.54022 0.00303899 -9.54022C-0.82904 -9.54022 -1.84762 -9.12418 -2.37843 -7.93345C-2.78012 -7.02964 -2.92358 -6.14017 -2.92358 -4.59078C-2.92358 -3.1992 -2.82316 -2.15193 -2.3067 -1.13335C-1.7472 -0.0430386 -0.757309 0.30127 -0.0113072 0.30127C1.23681 0.30127 1.95412 -0.444732 2.37016 -1.27681C2.88662 -2.35278 2.91532 -3.7587 2.91532 -4.59078ZM2.91532 -4.59078M-0.0113072 0.0143462C-0.470385 0.0143462 -1.40289 -0.243885 -1.67547 -1.80762C-1.83327 -2.66839 -1.83327 -3.7587 -1.83327 -4.76294C-1.83327 -5.93933 -1.83327 -7.00094 -1.60373 -7.84737C-1.35985 -8.80856 -0.628194 -9.2533 -0.0113072 -9.2533C0.533848 -9.2533 1.36593 -8.92333 1.63851 -7.68956C1.82501 -6.87183 1.82501 -5.73848 1.82501 -4.76294C1.82501 -3.80174 1.82501 -2.71143 1.6672 -1.83631C1.39462 -0.258232 0.49081 0.0143462 -0.0113072 0.0143462ZM-0.0113072 0.0143462" fill="black"/>
 </g>
 <path d="M0 28.3465L0 -0L28.3465 -0L28.3465 28.3465L0 28.3465" stroke="black"/>
 <path d="M10.6614 18.7959L17.685 18.7959"/>
 <g transform="matrix(1.000000,-0.000000,-0.000000,1.000000,14.173228,18.795883)">
  <path d="M-2.92358 -0M2.91532 -4.59078C2.91532 -5.78152 2.84359 -6.94356 2.32712 -8.03387C1.73893 -9.2246 0.706003 -9.54022 0.00303899 -9.54022C-0.82904 -9.54022 -1.84762 -9.12418 -2.37843 -7.93345C-2.78012 -7.02964 -2.92358 -6.14017 -2.92358 -4.59078C-2.92358 -3.1992 -2.82316 -2.15193 -2.3067 -1.13335C-1.7472 -0.0430386 -0.757309 0.30127 -0.0113072 0.30127C1.23681 0.30127 1.95412 -0.444732 2.37016 -1.27681C2.88662 -2.35278 2.91532 -3.7587 2.91532 -4.59078ZM2.91532 -4.59078M-0.0113072 0.0143462C-0.470385 0.0143462 -1.40289 -0.243885 -1.67547 -1.80762C-1.83327 -2.66839 -1.83327 -3.7587 -1.83327 -4.76294C-1.83327 -5.93933 -1.83327 -7.00094 -1.60373 -7.84737C-1.35985 -8.80856 -0.628194 -9.2533 -0.0113072 -9.2533C0.533848 -9.2533 1.36593 -8.92333 1.63851 -7.68956C1.82501 -6.87183 1.82501 -5.73848 1.82501 -4.76294C1.82501 -3.80174 1.82501 -2.71143 1.6672 -1.83631C1.39462 -0.258232 0.49081 0.0143462 -0.0113072 0.0143462ZM-0.0113072 0.0143462" fill="black"/>
 </g>
 <path d="M28.3465 28.3465L28.3465 -0L56.6929 -0L56.6929 28.3465L28.3465 28.3465" stroke="black" fill="#000"/>
 <path d="M39.0079 18.7959L46.0315 18.7959"/>
 <g>
  <g transform="matrix(1.000000,-0.000000,-0.000000,1.000000,42.519685,18.795883)">
   <path d="M-2.20628 -0M0.619925 -9.19591C0.619925 -9.52587 0.619925 -9.54022 0.333001 -9.54022C-0.0113072 -9.15287 -0.728617 -8.62206 -2.20628 -8.62206L-2.20628 -8.20602C-1.87631 -8.20602 -1.159 -8.20602 -0.369962 -8.57903L-0.369962 -1.10466C-0.369962 -0.588194 -0.413001 -0.41604 -1.67547 -0.41604L-2.1202 -0.41604L-2.1202 -0C-1.73285 -0.0286924 -0.34127 -0.0286924 0.132155 -0.0286924C0.605579 -0.0286924 1.98281 -0.0286924 2.37016 -0L2.37016 -0.41604L1.92543 -0.41604C0.662964 -0.41604 0.619925 -0.588194 0.619925 -1.10466ZM0.619925 -1.10466" fill="#fff"/>
  </g>
 </g>
 <path d="M56.6929 28.3465L56.6929 -0L85.0394 -0L85.0394 28.3465L56.6929 28.3465" stroke="black" fill="#000"/>
 <path d="M67.3544 18.7959L74.3779 18.7959"/>
 <g>
  <g transform="matrix(1.000000,-0.000000,-0.000000,1.000000,70.866142,18.795883)">
   <path d="M-2.20628 -0M0.619925 -9.19591C0.619925 -9.52587 0.619925 -9.54022 0.333001 -9.54022C-0.0113072 -9.15287 -0.728617 -8.62206 -2.20628 -8.62206L-2.20628 -8.20602C-1.87631 -8.20602 -1.159 -8.20602 -0.369962 -8.57903L-0.369962 -1.10466C-0.369962 -0.588194 -0.413001 -0.41604 -1.67547 -0.41604L-2.1202 -0.41604L-2.1202 -0C-1.73285 -0.0286924 -0.34127 -0.0286924 0.132155 -0.0286924C0.605579 -0.0286924 1.98281 -0.0286924 2.37016 -0L2.37016 -0.41604L1.92543 -0.41604C0.662964 -0.41604 0.619925 -0.588194 0.619925 -1.10466ZM0.619925 -1.10466" fill="#fff"/>
  </g>
 </g>
 <path d="M85.0394 28.3465L85.0394 -0L113.386 -0L113.386 28.3465L85.0394 28.3465" stroke="black" fill="#000"/>
 <path d="M95.7008 18.7959L102.724 18.7959"/>
 <g>
  <g transform="matrix(1.000000,-0.000000,-0.000000,1.000000,99.212598,18.795883)">
   <path d="M-2.20628 -0M0.619925 -9.19591C0.619925 -9.52587 0.619925 -9.54022 0.333001 -9.54022C-0.0113072 -9.15287 -0.728617 -8.62206 -2.20628 -8.62206L-2.20628 -8.20602C-1.87631 -8.20602 -1.159 -8.20602 -0.369962 -8.57903L-0.369962 -1.10466C-0.369962 -0.588194 -0.413001 -0.41604 -1.67547 -0.41604L-2.1202 -0.41604L-2.1202 -0C-1.73285 -0.0286924 -0.34127 -0.0286924 0.132155 -0.0286924C0.605579 -0.0286924 1.98281 -0.0286924 2.37016 -0L2.37016 -0.41604L1.92543 -0.41604C0.662964 -0.41604 0.619925 -0.588194 0.619925 -1.10466ZM0.619925 -1.10466" fill="#fff"/>
  </g>
 </g>
 <path d="M0 56.6929L0 28.3465L28.3465 28.3465L28.3465 56.6929L0 56.6929" stroke="black"/>
 <path d="M10.6614 47.1423L17.685 47.1423"/>
 <g transform="matrix(1.000000,-0.000000,-0.000000,1.000000,14.173228,47.142340)">
  <path d="M-2.92358 -0M2.91532 -4.59078C2.91532 -5.78152 2.84359 -6.94356 2.32712 -8.03387C1.73893 -9.2246 0.706003 -9.54022 0.00303899 -9.54022C-0.82904 -9.54022 -1.84762 -9.12418 -2.37843 -7.93345C-2.78012 -7.02964 -2.92358 -6.14017 -2.92358 -4.59078C-2.92358 -3.1992 -2.82316 -2.15193 -2.3067 -1.13335C-1.7472 -0.0430386 -0.757309 0.30127 -0.0113072 0.30127C1.23681 0.30127 1.95412 -0.444732 2.37016 -1.27681C2.88662 -2.35278 2.91532 -3.7587 2.91532 -4.59078ZM2.91532 -4.59078M-0.0113072 0.0143462C-0.470385 0.0143462 -1.40289 -0.243885 -1.67547 -1.80762C-1.83327 -2.66839 -1.83327 -3.7587 -1.83327 -4.76294C-1.83327 -5.93933 -1.83327 -7.00094 -1.60373 -7.84737C-1.35985 -8.80856 -0.628194 -9.2533 -0.0113072 -9.2533C0.533848 -9.2533 1.36593 -8.92333 1.63851 -7.68956C1.82501 -6.87183 1.82501 -5.73848 1.82501 -4.76294C1.82501 -3.80174 1.82501 -2.71143 1.6672 -1.83631C1.39462 -0.258232 0.49081 0.0143462 -0.0113072 0.0143462ZM-0.0113072 0.0143462" fill="#000"/>
 </g>
 <path d="M28.3465 56.6929L28.3465 28.3465L56.6929 28.3465L56.6929 56.6929L28.3465 56.6929" stroke="black"/>
 <path d="M39.0079 47.1423L46.0315 47.1423"/>
 <g transform="matrix(1.000000,-0.000000,-0.000000,1.000000,42.519685,47.142340)">
  <path d="M-2.92358 -0M2.91532 -4.59078C2.91532 -5.78152 2.84359 -6.94356 2.32712 -8.03387C1.73893 -9.2246 0.706003 -9.54022 0.00303899 -9.54022C-0.82904 -9.54022 -1.84762 -9.12418 -2.37843 -7.93345C-2.78012 -7.02964 -2.92358 -6.14017 -2.92358 -4.59078C-2.92358 -3.1992 -2.82316 -2.15193 -2.3067 -1.13335C-1.7472 -0.0430386 -0.757309 0.30127 -0.0113072 0.30127C1.23681 0.30127 1.95412 -0.444732 2.37016 -1.27681C2.88662 -2.35278 2.91532 -3.7587 2.91532 -4.59078ZM2.91532 -4.59078M-0.0113072 0.0143462C-0.470385 0.0143462 -1.40289 -0.243885 -1.67547 -1.80762C-1.83327 -2.66839 -1.83327 -3.7587 -1.83327 -4.76294C-1.83327 -5.93933 -1.83327 -7.00094 -1.60373 -7.84737C-1.35985 -8.80856 -0.628194 -9.2533 -0.0113072 -9.2533C0.533848 -9.2533 1.36593 -8.92333 1.63851 -7.68956C1.82501 -6.87183 1.82501 -5.73848 1.82501 -4.76294C1.82501 -3.80174 1.82501 -2.71143 1.6672 -1.83631C1.39462 -0.258232 0.49081 0.0143462 -0.0113072 0.0143462ZM-0.0113072 0.0143462" fill="#000"/>
 </g>
 <path d="M56.6929 56.6929L56.6929 28.3465L85.0394 28.3465L85.0394 56.6929L56.6929 56.6929" stroke="black"/>
 <path d="M67.3544 47.1423L74.3779 47.1423"/>
 <g transform="matrix(1.000000,-0.000000,-0.000000,1.000000,70.866142,47.142340)">
  <path d="M-2.92358 -0M2.91532 -4.59078C2.91532 -5.78152 2.84359 -6.94356 2.32712 -8.03387C1.73893 -9.2246 0.706003 -9.54022 0.00303899 -9.54022C-0.82904 -9.54022 -1.84762 -9.12418 -2.37843 -7.93345C-2.78012 -7.02964 -2.92358 -6.14017 -2.92358 -4.59078C-2.92358 -3.1992 -2.82316 -2.15193 -2.3067 -1.13335C-1.7472 -0.0430386 -0.757309 0.30127 -0.0113072 0.30127C1.23681 0.30127 1.95412 -0.444732 2.37016 -1.27681C2.88662 -2.35278 2.91532 -3.7587 2.91532 -4.59078ZM2.91532 -4.59078M-0.0113072 0.0143462C-0.470385 0.0143462 -1.40289 -0.243885 -1.67547 -1.80762C-1.83327 -2.66839 -1.83327 -3.7587 -1.83327 -4.76294C-1.83327 -5.93933 -1.83327 -7.00094 -1.60373 -7.84737C-1.35985 -8.80856 -0.628194 -9.2533 -0.0113072 -9.2533C0.533848 -9.2533 1.36593 -8.92333 1.63851 -7.68956C1.82501 -6.87183 1.82501 -5.73848 1.82501 -4.76294C1.82501 -3.80174 1.82501 -2.71143 1.6672 -1.83631C1.39462 -0.258232 0.49081 0.0143462 -0.0113072 0.0143462ZM-0.0113072 0.0143462" fill="#000"/>
 </g>
 <path d="M85.0394 56.6929L85.0394 28.3465L113.386 28.3465L113.386 56.6929L85.0394 56.6929" stroke="black" fill="#000"/>
 <path d="M95.7008 47.1423L102.724 47.1423"/>
 <g>
  <g transform="matrix(1.000000,-0.000000,-0.000000,1.000000,99.212598,47.142340)">
   <path d="M-2.20628 -0M0.619925 -9.19591C0.619925 -9.52587 0.619925 -9.54022 0.333001 -9.54022C-0.0113072 -9.15287 -0.728617 -8.62206 -2.20628 -8.62206L-2.20628 -8.20602C-1.87631 -8.20602 -1.159 -8.20602 -0.369962 -8.57903L-0.369962 -1.10466C-0.369962 -0.588194 -0.413001 -0.41604 -1.67547 -0.41604L-2.1202 -0.41604L-2.1202 -0C-1.73285 -0.0286924 -0.34127 -0.0286924 0.132155 -0.0286924C0.605579 -0.0286924 1.98281 -0.0286924 2.37016 -0L2.37016 -0.41604L1.92543 -0.41604C0.662964 -0.41604 0.619925 -0.588194 0.619925 -1.10466ZM0.619925 -1.10466" fill="#fff"/>
  </g>
 </g>
 <path d="M0 85.0394L0 56.6929L28.3465 56.6929L28.3465 85.0394L0 85.0394" stroke="black"/>
 <path d="M10.6614 75.4888L17.685 75.4888"/>
 <g transform="matrix(1.000000,-0.000000,-0.000000,1.000000,14.173228,75.488797)">
  <path d="M-2.92358 -0M2.91532 -4.59078C2.91532 -5.78152 2.84359 -6.94356 2.32712 -8.03387C1.73893 -9.2246 0.706003 -9.54022 0.00303899 -9.54022C-0.82904 -9.54022 -1.84762 -9.12418 -2.37843 -7.93345C-2.78012 -7.02964 -2.92358 -6.14017 -2.92358 -4.59078C-2.92358 -3.1992 -2.82316 -2.15193 -2.3067 -1.13335C-1.7472 -0.0430386 -0.757309 0.30127 -0.0113072 0.30127C1.23681 0.30127 1.95412 -0.444732 2.37016 -1.27681C2.88662 -2.35278 2.91532 -3.7587 2.91532 -4.59078ZM2.91532 -4.59078M-0.0113072 0.0143462C-0.470385 0.0143462 -1.40289 -0.243885 -1.67547 -1.80762C-1.83327 -2.66839 -1.83327 -3.7587 -1.83327 -4.76294C-1.83327 -5.93933 -1.83327 -7.00094 -1.60373 -7.84737C-1.35985 -8.80856 -0.628194 -9.2533 -0.0113072 -9.2533C0.533848 -9.2533 1.36593 -8.92333 1.63851 -7.68956C1.82501 -6.87183 1.82501 -5.73848 1.82501 -4.76294C1.82501 -3.80174 1.82501 -2.71143 1.6672 -1.83631C1.39462 -0.258232 0.49081 0.0143462 -0.0113072 0.0143462ZM-0.0113072 0.0143462" fill="#000"/>
 </g>
 <path d="M28.3465 85.0394L28.3465 56.6929L56.6929 56.6929L56.6929 85.0394L28.3465 85.0394" stroke="black"/>
 <path d="M39.0079 75.4888L46.0315 75.4888"/>
 <g transform="matrix(1.000000,-0.000000,-0.000000,1.000000,42.519685,75.488797)">
  <path d="M-2.92358 -0M2.91532 -4.59078C2.91532 -5.78152 2.84359 -6.94356 2.32712 -8.03387C1.73893 -9.2246 0.706003 -9.54022 0.00303899 -9.54022C-0.82904 -9.54022 -1.84762 -9.12418 -2.37843 -7.93345C-2.78012 -7.02964 -2.92358 -6.14017 -2.92358 -4.59078C-2.92358 -3.1992 -2.82316 -2.15193 -2.3067 -1.13335C-1.7472 -0.0430386 -0.757309 0.30127 -0.0113072 0.30127C1.23681 0.30127 1.95412 -0.444732 2.37016 -1.27681C2.88662 -2.35278 2.91532 -3.7587 2.91532 -4.59078ZM2.91532 -4.59078M-0.0113072 0.0143462C-0.470385 0.0143462 -1.40289 -0.243885 -1.67547 -1.80762C-1.83327 -2.66839 -1.83327 -3.7587 -1.83327 -4.76294C-1.83327 -5.93933 -1.83327 -7.00094 -1.60373 -7.84737C-1.35985 -8.80856 -0.628194 -9.2533 -0.0113072 -9.2533C0.533848 -9.2533 1.36593 -8.92333 1.63851 -7.68956C1.82501 -6.87183 1.82501 -5.73848 1.82501 -4.76294C1.82501 -3.80174 1.82501 -2.71143 1.6672 -1.83631C1.39462 -0.258232 0.49081 0.0143462 -0.0113072 0.0143462ZM-0.0113072 0.0143462" fill="#000"/>
 </g>
 <path d="M56.6929 85.0394L56.6929 56.6929L85.0394 56.6929L85.0394 85.0394L56.6929 85.0394" stroke="black"/>
 <path d="M67.3544 75.4888L74.3779 75.4888"/>
 <g transform="matrix(1.000000,-0.000000,-0.000000,1.000000,70.866142,75.488797)">
  <path d="M-2.92358 -0M2.91532 -4.59078C2.91532 -5.78152 2.84359 -6.94356 2.32712 -8.03387C1.73893 -9.2246 0.706003 -9.54022 0.00303899 -9.54022C-0.82904 -9.54022 -1.84762 -9.12418 -2.37843 -7.93345C-2.78012 -7.02964 -2.92358 -6.14017 -2.92358 -4.59078C-2.92358 -3.1992 -2.82316 -2.15193 -2.3067 -1.13335C-1.7472 -0.0430386 -0.757309 0.30127 -0.0113072 0.30127C1.23681 0.30127 1.95412 -0.444732 2.37016 -1.27681C2.88662 -2.35278 2.91532 -3.7587 2.91532 -4.59078ZM2.91532 -4.59078M-0.0113072 0.0143462C-0.470385 0.0143462 -1.40289 -0.243885 -1.67547 -1.80762C-1.83327 -2.66839 -1.83327 -3.7587 -1.83327 -4.76294C-1.83327 -5.93933 -1.83327 -7.00094 -1.60373 -7.84737C-1.35985 -8.80856 -0.628194 -9.2533 -0.0113072 -9.2533C0.533848 -9.2533 1.36593 -8.92333 1.63851 -7.68956C1.82501 -6.87183 1.82501 -5.73848 1.82501 -4.76294C1.82501 -3.80174 1.82501 -2.71143 1.6672 -1.83631C1.39462 -0.258232 0.49081 0.0143462 -0.0113072 0.0143462ZM-0.0113072 0.0143462" fill="#000"/>
 </g>
 <path d="M85.0394 85.0394L85.0394 56.6929L113.386 56.6929L113.386 85.0394L85.0394 85.0394" stroke="black"/>
 <path d="M95.7008 75.4888L102.724 75.4888"/>
 <g transform="matrix(1.000000,-0.000000,-0.000000,1.000000,99.212598,75.488797)">
  <path d="M-2.92358 -0M2.91532 -4.59078C2.91532 -5.78152 2.84359 -6.94356 2.32712 -8.03387C1.73893 -9.2246 0.706003 -9.54022 0.00303899 -9.54022C-0.82904 -9.54022 -1.84762 -9.12418 -2.37843 -7.93345C-2.78012 -7.02964 -2.92358 -6.14017 -2.92358 -4.59078C-2.92358 -3.1992 -2.82316 -2.15193 -2.3067 -1.13335C-1.7472 -0.0430386 -0.757309 0.30127 -0.0113072 0.30127C1.23681 0.30127 1.95412 -0.444732 2.37016 -1.27681C2.88662 -2.35278 2.91532 -3.7587 2.91532 -4.59078ZM2.91532 -4.59078M-0.0113072 0.0143462C-0.470385 0.0143462 -1.40289 -0.243885 -1.67547 -1.80762C-1.83327 -2.66839 -1.83327 -3.7587 -1.83327 -4.76294C-1.83327 -5.93933 -1.83327 -7.00094 -1.60373 -7.84737C-1.35985 -8.80856 -0.628194 -9.2533 -0.0113072 -9.2533C0.533848 -9.2533 1.36593 -8.92333 1.63851 -7.68956C1.82501 -6.87183 1.82501 -5.73848 1.82501 -4.76294C1.82501 -3.80174 1.82501 -2.71143 1.6672 -1.83631C1.39462 -0.258232 0.49081 0.0143462 -0.0113072 0.0143462ZM-0.0113072 0.0143462" fill="#000"/>
 </g>
 <path d="M34.9345 99.6355L78.4514 99.6355"/>
 <g transform="matrix(1.000000,-0.000000,-0.000000,1.000000,56.692913,99.635470)">
  <path d="M-21.1043 -0M-14.528 -5.52616C-14.528 -6.5763 -14.5452 -8.3667 -15.2682 -9.74394C-15.9052 -10.949 -16.9209 -11.3794 -17.8161 -11.3794C-18.6425 -11.3794 -19.6926 -11.0007 -20.3468 -9.76115C-21.0354 -8.47 -21.1043 -6.86896 -21.1043 -5.52616C-21.1043 -4.54488 -21.0871 -3.04713 -20.5534 -1.73876C-19.8131 0.0344309 -18.4875 0.275447 -17.8161 0.275447C-17.0242 0.275447 -15.8191 -0.0516463 -15.1133 -1.68711C-14.5968 -2.87498 -14.528 -4.26943 -14.528 -5.52616ZM-14.528 -5.52616M-17.8161 -0C-18.9179 -0 -19.5721 -0.946849 -19.8131 -2.25522C-20.0025 -3.27093 -20.0025 -4.75146 -20.0025 -5.71553C-20.0025 -7.04112 -20.0025 -8.1429 -19.7787 -9.19305C-19.4516 -10.6564 -18.4875 -11.104 -17.8161 -11.104C-17.1103 -11.104 -16.1979 -10.6391 -15.8708 -9.22748C-15.647 -8.2462 -15.6298 -7.09276 -15.6298 -5.71553C-15.6298 -4.59652 -15.6298 -3.21929 -15.8364 -2.20358C-16.1979 -0.327093 -17.2136 -0 -17.8161 -0ZM-17.8161 -0" fill="#000"/>
 </g>
 <g transform="matrix(1.000000,-0.000000,-0.000000,1.000000,56.692913,99.635470)">
  <path d="M-13.0712 -0M-6.099 -10.7252L-6.099 -11.104L-10.1446 -11.104C-12.1588 -11.104 -12.1933 -11.3278 -12.2621 -11.6549L-12.572 -11.6549L-13.0712 -8.43557L-12.7614 -8.43557C-12.7097 -8.76266 -12.5892 -9.64065 -12.3826 -9.96774C-12.2793 -10.1055 -11.0054 -10.1055 -10.7127 -10.1055L-6.92534 -10.1055L-8.83625 -7.26492C-10.1102 -5.354 -10.9882 -2.77169 -10.9882 -0.516463C-10.9882 -0.309878 -10.9882 0.275447 -10.3684 0.275447C-9.74867 0.275447 -9.74867 -0.309878 -9.74867 -0.533679L-9.74867 -1.32559C-9.74867 -4.14892 -9.26664 -6.00819 -8.47473 -7.19605ZM-8.47473 -7.19605" fill="#000"/>
 </g>
 <g transform="matrix(1.000000,-0.000000,-0.000000,1.000000,56.692913,99.635470)">
  <path d="M-4.47011 -0M-1.38855 -11.0007C-1.38855 -11.3622 -1.40576 -11.3794 -1.64678 -11.3794C-2.31818 -10.5703 -3.33389 -10.312 -4.29796 -10.2776C-4.3496 -10.2776 -4.43568 -10.2776 -4.4529 -10.2432C-4.47011 -10.2088 -4.47011 -10.1743 -4.47011 -9.8128C-3.93643 -9.8128 -3.04123 -9.91609 -2.35261 -10.3293L-2.35261 -1.25673C-2.35261 -0.654187 -2.38704 -0.447601 -3.86757 -0.447601L-4.38403 -0.447601L-4.38403 -0C-3.55769 -0.0172154 -2.69692 -0.0344309 -1.87058 -0.0344309C-1.04424 -0.0344309 -0.183467 -0.0172154 0.642874 -0L0.642874 -0.447601L0.126411 -0.447601C-1.35412 -0.447601 -1.38855 -0.636971 -1.38855 -1.25673ZM-1.38855 -1.25673" fill="#000"/>
 </g>
 <g transform="matrix(1.000000,-0.000000,-0.000000,1.000000,56.692913,99.635470)">
  <path d="M2.58164 -0M9.15793 -5.52616C9.15793 -6.5763 9.14072 -8.3667 8.41767 -9.74394C7.7807 -10.949 6.76499 -11.3794 5.86979 -11.3794C5.04344 -11.3794 3.9933 -11.0007 3.33912 -9.76115C2.6505 -8.47 2.58164 -6.86896 2.58164 -5.52616C2.58164 -4.54488 2.59885 -3.04713 3.13253 -1.73876C3.87279 0.0344309 5.19838 0.275447 5.86979 0.275447C6.6617 0.275447 7.86678 -0.0516463 8.57261 -1.68711C9.08907 -2.87498 9.15793 -4.26943 9.15793 -5.52616ZM9.15793 -5.52616M5.86979 -0C4.768 -0 4.11381 -0.946849 3.87279 -2.25522C3.68342 -3.27093 3.68342 -4.75146 3.68342 -5.71553C3.68342 -7.04112 3.68342 -8.1429 3.90722 -9.19305C4.23432 -10.6564 5.19838 -11.104 5.86979 -11.104C6.57562 -11.104 7.48804 -10.6391 7.81513 -9.22748C8.03893 -8.2462 8.05615 -7.09276 8.05615 -5.71553C8.05615 -4.59652 8.05615 -3.21929 7.84956 -2.20358C7.48804 -0.327093 6.47233 -0 5.86979 -0ZM5.86979 -0" fill="#000"/>
 </g>
 <g transform="matrix(1.000000,-0.000000,-0.000000,1.000000,56.692913,99.635470)">
  <path d="M10.7007 -0M19.4806 -10.5358C19.4806 -11.3105 19.67 -11.3105 20.8579 -11.3105L20.8579 -11.7581C20.3586 -11.7237 19.4462 -11.7237 18.9125 -11.7237C18.3788 -11.7237 17.4664 -11.7237 16.9672 -11.7581L16.9672 -11.3105C18.155 -11.3105 18.3444 -11.3105 18.3444 -10.5358L18.3444 -6.33528L13.2142 -6.33528L13.2142 -10.5358C13.2142 -11.3105 13.4036 -11.3105 14.5914 -11.3105L14.5914 -11.7581C14.0922 -11.7237 13.1798 -11.7237 12.6461 -11.7237C12.1124 -11.7237 11.2 -11.7237 10.7007 -11.7581L10.7007 -11.3105C11.8886 -11.3105 12.078 -11.3105 12.078 -10.5358L12.078 -1.2223C12.078 -0.447601 11.8886 -0.447601 10.7007 -0.447601L10.7007 -0C11.2 -0.0344309 12.1124 -0.0344309 12.6461 -0.0344309C13.1798 -0.0344309 14.0922 -0.0344309 14.5914 -0L14.5914 -0.447601C13.4036 -0.447601 13.2142 -0.447601 13.2142 -1.2223L13.2142 -5.88768L18.3444 -5.88768L18.3444 -1.2223C18.3444 -0.447601 18.155 -0.447601 16.9672 -0.447601L16.9672 -0C17.4664 -0.0344309 18.3788 -0.0344309 18.9125 -0.0344309C19.4462 -0.0344309 20.3586 -0.0344309 20.8579 -0L20.8579 -0.447601C19.67 -0.447601 19.4806 -0.447601 19.4806 -1.2223ZM19.4806 -1.2223" fill="#000"/>
 </g>
 <path d="M141.732 -0L141.732 -28.3465L170.079 -28.3465L170.079 -0L141.732 -0" stroke="black"/>
 <path d="M152.394 -9.55057L159.417 -9.55057"/>
 <g transform="matrix(1.000000,-0.000000,-0.000000,1.000000,155.905512,-9.550573)">
  <path d="M-2.92358 -0M2.91532 -4.59078C2.91532 -5.78152 2.84359 -6.94356 2.32712 -8.03387C1.73893 -9.2246 0.706003 -9.54022 0.00303899 -9.54022C-0.82904 -9.54022 -1.84762 -9.12418 -2.37843 -7.93345C-2.78012 -7.02964 -2.92358 -6.14017 -2.92358 -4.59078C-2.92358 -3.1992 -2.82316 -2.15193 -2.3067 -1.13335C-1.7472 -0.0430386 -0.757309 0.30127 -0.0113072 0.30127C1.23681 0.30127 1.95412 -0.444732 2.37016 -1.27681C2.88662 -2.35278 2.91532 -3.7587 2.91532 -4.59078ZM2.91532 -4.59078M-0.0113072 0.0143462C-0.470385 0.0143462 -1.40289 -0.243885 -1.67547 -1.80762C-1.83327 -2.66839 -1.83327 -3.7587 -1.83327 -4.76294C-1.83327 -5.93933 -1.83327 -7.00094 -1.60373 -7.84737C-1.35985 -8.80856 -0.628194 -9.2533 -0.0113072 -9.2533C0.533848 -9.2533 1.36593 -8.92333 1.63851 -7.68956C1.82501 -6.87183 1.82501 -5.73848 1.82501 -4.76294C1.82501 -3.80174 1.82501 -2.71143 1.6672 -1.83631C1.39462 -0.258232 0.49081 0.0143462 -0.0113072 0.0143462ZM-0.0113072 0.0143462" fill="#000"/>
 </g>
 <path d="M170.079 -0L170.079 -28.3465L198.425 -28.3465L198.425 -0L170.079 -0" stroke="black"/>
 <path d="M180.74 -9.55057L187.764 -9.55057"/>
 <g transform="matrix(1.000000,-0.000000,-0.000000,1.000000,184.251969,-9.550573)">
  <path d="M-2.92358 -0M2.91532 -4.59078C2.91532 -5.78152 2.84359 -6.94356 2.32712 -8.03387C1.73893 -9.2246 0.706003 -9.54022 0.00303899 -9.54022C-0.82904 -9.54022 -1.84762 -9.12418 -2.37843 -7.93345C-2.78012 -7.02964 -2.92358 -6.14017 -2.92358 -4.59078C-2.92358 -3.1992 -2.82316 -2.15193 -2.3067 -1.13335C-1.7472 -0.0430386 -0.757309 0.30127 -0.0113072 0.30127C1.23681 0.30127 1.95412 -0.444732 2.37016 -1.27681C2.88662 -2.35278 2.91532 -3.7587 2.91532 -4.59078ZM2.91532 -4.59078M-0.0113072 0.0143462C-0.470385 0.0143462 -1.40289 -0.243885 -1.67547 -1.80762C-1.83327 -2.66839 -1.83327 -3.7587 -1.83327 -4.76294C-1.83327 -5.93933 -1.83327 -7.00094 -1.60373 -7.84737C-1.35985 -8.80856 -0.628194 -9.2533 -0.0113072 -9.2533C0.533848 -9.2533 1.36593 -8.92333 1.63851 -7.68956C1.82501 -6.87183 1.82501 -5.73848 1.82501 -4.76294C1.82501 -3.80174 1.82501 -2.71143 1.6672 -1.83631C1.39462 -0.258232 0.49081 0.0143462 -0.0113072 0.0143462ZM-0.0113072 0.0143462" fill="#000"/>
 </g>
 <path d="M198.425 -0L198.425 -28.3465L226.772 -28.3465L226.772 -0L198.425 -0" stroke="black" fill="#000"/>
 <path d="M209.087 -9.55057L216.11 -9.55057"/>
 <g>
  <g transform="matrix(1.000000,-0.000000,-0.000000,1.000000,212.598425,-9.550573)">
   <path d="M-2.20628 -0M0.619925 -9.19591C0.619925 -9.52587 0.619925 -9.54022 0.333001 -9.54022C-0.0113072 -9.15287 -0.728617 -8.62206 -2.20628 -8.62206L-2.20628 -8.20602C-1.87631 -8.20602 -1.159 -8.20602 -0.369962 -8.57903L-0.369962 -1.10466C-0.369962 -0.588194 -0.413001 -0.41604 -1.67547 -0.41604L-2.1202 -0.41604L-2.1202 -0C-1.73285 -0.0286924 -0.34127 -0.0286924 0.132155 -0.0286924C0.605579 -0.0286924 1.98281 -0.0286924 2.37016 -0L2.37016 -0.41604L1.92543 -0.41604C0.662964 -0.41604 0.619925 -0.588194 0.619925 -1.10466ZM0.619925 -1.10466" fill="#fff"/>
  </g>
 </g>
 <path d="M226.772 -0L226.772 -28.3465L255.118 -28.3465L255.118 -0L226.772 -0" stroke="black" fill="#000"/>
 <path d="M237.433 -9.55057L244.457 -9.55057"/>
 <g>
  <g transform="matrix(1.000000,-0.000000,-0.000000,1.000000,240.944882,-9.550573)">
   <path d="M-2.20628 -0M0.619925 -9.19591C0.619925 -9.52587 0.619925 -9.54022 0.333001 -9.54022C-0.0113072 -9.15287 -0.728617 -8.62206 -2.20628 -8.62206L-2.20628 -8.20602C-1.87631 -8.20602 -1.159 -8.20602 -0.369962 -8.57903L-0.369962 -1.10466C-0.369962 -0.588194 -0.413001 -0.41604 -1.67547 -0.41604L-2.1202 -0.41604L-2.1202 -0C-1.73285 -0.0286924 -0.34127 -0.0286924 0.132155 -0.0286924C0.605579 -0.0286924 1.98281 -0.0286924 2.37016 -0L2.37016 -0.41604L1.92543 -0.41604C0.662964 -0.41604 0.619925 -0.588194 0.619925 -1.10466ZM0.619925 -1.10466" fill="#fff"/>
  </g>
 </g>
 <path d="M141.732 28.3465L141.732 -0L170.079 -0L170.079 28.3465L141.732 28.3465" stroke="black"/>
 <path d="M152.394 18.7959L159.417 18.7959"/>
 <g transform="matrix(1.000000,-0.000000,-0.000000,1.000000,155.905512,18.795883)">
  <path d="M-2.92358 -0M2.91532 -4.59078C2.91532 -5.78152 2.84359 -6.94356 2.32712 -8.03387C1.73893 -9.2246 0.706003 -9.54022 0.00303899 -9.54022C-0.82904 -9.54022 -1.84762 -9.12418 -2.37843 -7.93345C-2.78012 -7.02964 -2.92358 -6.14017 -2.92358 -4.59078C-2.92358 -3.1992 -2.82316 -2.15193 -2.3067 -1.13335C-1.7472 -0.0430386 -0.757309 0.30127 -0.0113072 0.30127C1.23681 0.30127 1.95412 -0.444732 2.37016 -1.27681C2.88662 -2.35278 2.91532 -3.7587 2.91532 -4.59078ZM2.91532 -4.59078M-0.0113072 0.0143462C-0.470385 0.0143462 -1.40289 -0.243885 -1.67547 -1.80762C-1.83327 -2.66839 -1.83327 -3.7587 -1.83327 -4.76294C-1.83327 -5.93933 -1.83327 -7.00094 -1.60373 -7.84737C-1.35985 -8.80856 -0.628194 -9.2533 -0.0113072 -9.2533C0.533848 -9.2533 1.36593 -8.92333 1.63851 -7.68956C1.82501 -6.87183 1.82501 -5.73848 1.82501 -4.76294C1.82501 -3.80174 1.82501 -2.71143 1.6672 -1.83631C1.39462 -0.258232 0.49081 0.0143462 -0.0113072 0.0143462ZM-0.0113072 0.0143462" fill="#000"/>
 </g>
 <path d="M170.079 28.3465L170.079 -0L198.425 -0L198.425 28.3465L170.079 28.3465" stroke="black"/>
 <path d="M180.74 18.7959L187.764 18.7959"/>
 <g transform="matrix(1.000000,-0.000000,-0.000000,1.000000,184.251969,18.795883)">
  <path d="M-2.92358 -0M2.91532 -4.59078C2.91532 -5.78152 2.84359 -6.94356 2.32712 -8.03387C1.73893 -9.2246 0.706003 -9.54022 0.00303899 -9.54022C-0.82904 -9.54022 -1.84762 -9.12418 -2.37843 -7.93345C-2.78012 -7.02964 -2.92358 -6.14017 -2.92358 -4.59078C-2.92358 -3.1992 -2.82316 -2.15193 -2.3067 -1.13335C-1.7472 -0.0430386 -0.757309 0.30127 -0.0113072 0.30127C1.23681 0.30127 1.95412 -0.444732 2.37016 -1.27681C2.88662 -2.35278 2.91532 -3.7587 2.91532 -4.59078ZM2.91532 -4.59078M-0.0113072 0.0143462C-0.470385 0.0143462 -1.40289 -0.243885 -1.67547 -1.80762C-1.83327 -2.66839 -1.83327 -3.7587 -1.83327 -4.76294C-1.83327 -5.93933 -1.83327 -7.00094 -1.60373 -7.84737C-1.35985 -8.80856 -0.628194 -9.2533 -0.0113072 -9.2533C0.533848 -9.2533 1.36593 -8.92333 1.63851 -7.68956C1.82501 -6.87183 1.82501 -5.73848 1.82501 -4.76294C1.82501 -3.80174 1.82501 -2.71143 1.6672 -1.83631C1.39462 -0.258232 0.49081 0.0143462 -0.0113072 0.0143462ZM-0.0113072 0.0143462" fill="#000"/>
 </g>
 <path d="M198.425 28.3465L198.425 -0L226.772 -0L226.772 28.3465L198.425 28.3465" stroke="black" fill="#000"/>
 <path d="M209.087 18.7959L216.11 18.7959"/>
 <g>
  <g transform="matrix(1.000000,-0.000000,-0.000000,1.000000,212.598425,18.795883)">
   <path d="M-2.20628 -0M0.619925 -9.19591C0.619925 -9.52587 0.619925 -9.54022 0.333001 -9.54022C-0.0113072 -9.15287 -0.728617 -8.62206 -2.20628 -8.62206L-2.20628 -8.20602C-1.87631 -8.20602 -1.159 -8.20602 -0.369962 -8.57903L-0.369962 -1.10466C-0.369962 -0.588194 -0.413001 -0.41604 -1.67547 -0.41604L-2.1202 -0.41604L-2.1202 -0C-1.73285 -0.0286924 -0.34127 -0.0286924 0.132155 -0.0286924C0.605579 -0.0286924 1.98281 -0.0286924 2.37016 -0L2.37016 -0.41604L1.92543 -0.41604C0.662964 -0.41604 0.619925 -0.588194 0.619925 -1.10466ZM0.619925 -1.10466" fill="#fff"/>
  </g>
 </g>
 <path d="M226.772 28.3465L226.772 -0L255.118 -0L255.118 28.3465L226.772 28.3465" stroke="black"/>
 <path d="M237.433 18.7959L244.457 18.7959"/>
 <g transform="matrix(1.000000,-0.000000,-0.000000,1.000000,240.944882,18.795883)">
  <path d="M-2.92358 -0M2.91532 -4.59078C2.91532 -5.78152 2.84359 -6.94356 2.32712 -8.03387C1.73893 -9.2246 0.706003 -9.54022 0.00303899 -9.54022C-0.82904 -9.54022 -1.84762 -9.12418 -2.37843 -7.93345C-2.78012 -7.02964 -2.92358 -6.14017 -2.92358 -4.59078C-2.92358 -3.1992 -2.82316 -2.15193 -2.3067 -1.13335C-1.7472 -0.0430386 -0.757309 0.30127 -0.0113072 0.30127C1.23681 0.30127 1.95412 -0.444732 2.37016 -1.27681C2.88662 -2.35278 2.91532 -3.7587 2.91532 -4.59078ZM2.91532 -4.59078M-0.0113072 0.0143462C-0.470385 0.0143462 -1.40289 -0.243885 -1.67547 -1.80762C-1.83327 -2.66839 -1.83327 -3.7587 -1.83327 -4.76294C-1.83327 -5.93933 -1.83327 -7.00094 -1.60373 -7.84737C-1.35985 -8.80856 -0.628194 -9.2533 -0.0113072 -9.2533C0.533848 -9.2533 1.36593 -8.92333 1.63851 -7.68956C1.82501 -6.87183 1.82501 -5.73848 1.82501 -4.76294C1.82501 -3.80174 1.82501 -2.71143 1.6672 -1.83631C1.39462 -0.258232 0.49081 0.0143462 -0.0113072 0.0143462ZM-0.0113072 0.0143462" fill="#000"/>
 </g>
 <path d="M141.732 56.6929L141.732 28.3465L170.079 28.3465L170.079 56.6929L141.732 56.6929" stroke="black"/>
 <path d="M152.394 47.1423L159.417 47.1423"/>
 <g transform="matrix(1.000000,-0.000000,-0.000000,1.000000,155.905512,47.142340)">
  <path d="M-2.92358 -0M2.91532 -4.59078C2.91532 -5.78152 2.84359 -6.94356 2.32712 -8.03387C1.73893 -9.2246 0.706003 -9.54022 0.00303899 -9.54022C-0.82904 -9.54022 -1.84762 -9.12418 -2.37843 -7.93345C-2.78012 -7.02964 -2.92358 -6.14017 -2.92358 -4.59078C-2.92358 -3.1992 -2.82316 -2.15193 -2.3067 -1.13335C-1.7472 -0.0430386 -0.757309 0.30127 -0.0113072 0.30127C1.23681 0.30127 1.95412 -0.444732 2.37016 -1.27681C2.88662 -2.35278 2.91532 -3.7587 2.91532 -4.59078ZM2.91532 -4.59078M-0.0113072 0.0143462C-0.470385 0.0143462 -1.40289 -0.243885 -1.67547 -1.80762C-1.83327 -2.66839 -1.83327 -3.7587 -1.83327 -4.76294C-1.83327 -5.93933 -1.83327 -7.00094 -1.60373 -7.84737C-1.35985 -8.80856 -0.628194 -9.2533 -0.0113072 -9.2533C0.533848 -9.2533 1.36593 -8.92333 1.63851 -7.68956C1.82501 -6.87183 1.82501 -5.73848 1.82501 -4.76294C1.82501 -3.80174 1.82501 -2.71143 1.6672 -1.83631C1.39462 -0.258232 0.49081 0.0143462 -0.0113072 0.0143462ZM-0.0113072 0.0143462" fill="#000"/>
 </g>
 <path d="M170.079 56.6929L170.079 28.3465L198.425 28.3465L198.425 56.6929L170.079 56.6929" stroke="black"/>
 <path d="M180.74 47.1423L187.764 47.1423"/>
 <g transform="matrix(1.000000,-0.000000,-0.000000,1.000000,184.251969,47.142340)">
  <path d="M-2.92358 -0M2.91532 -4.59078C2.91532 -5.78152 2.84359 -6.94356 2.32712 -8.03387C1.73893 -9.2246 0.706003 -9.54022 0.00303899 -9.54022C-0.82904 -9.54022 -1.84762 -9.12418 -2.37843 -7.93345C-2.78012 -7.02964 -2.92358 -6.14017 -2.92358 -4.59078C-2.92358 -3.1992 -2.82316 -2.15193 -2.3067 -1.13335C-1.7472 -0.0430386 -0.757309 0.30127 -0.0113072 0.30127C1.23681 0.30127 1.95412 -0.444732 2.37016 -1.27681C2.88662 -2.35278 2.91532 -3.7587 2.91532 -4.59078ZM2.91532 -4.59078M-0.0113072 0.0143462C-0.470385 0.0143462 -1.40289 -0.243885 -1.67547 -1.80762C-1.83327 -2.66839 -1.83327 -3.7587 -1.83327 -4.76294C-1.83327 -5.93933 -1.83327 -7.00094 -1.60373 -7.84737C-1.35985 -8.80856 -0.628194 -9.2533 -0.0113072 -9.2533C0.533848 -9.2533 1.36593 -8.92333 1.63851 -7.68956C1.82501 -6.87183 1.82501 -5.73848 1.82501 -4.76294C1.82501 -3.80174 1.82501 -2.71143 1.6672 -1.83631C1.39462 -0.258232 0.49081 0.0143462 -0.0113072 0.0143462ZM-0.0113072 0.0143462" fill="#000"/>
 </g>
 <path d="M198.425 56.6929L198.425 28.3465L226.772 28.3465L226.772 56.6929L198.425 56.6929" stroke="black" fill="#000"/>
 <path d="M209.087 47.1423L216.11 47.1423"/>
 <g>
  <g transform="matrix(1.000000,-0.000000,-0.000000,1.000000,212.598425,47.142340)">
   <path d="M-2.20628 -0M0.619925 -9.19591C0.619925 -9.52587 0.619925 -9.54022 0.333001 -9.54022C-0.0113072 -9.15287 -0.728617 -8.62206 -2.20628 -8.62206L-2.20628 -8.20602C-1.87631 -8.20602 -1.159 -8.20602 -0.369962 -8.57903L-0.369962 -1.10466C-0.369962 -0.588194 -0.413001 -0.41604 -1.67547 -0.41604L-2.1202 -0.41604L-2.1202 -0C-1.73285 -0.0286924 -0.34127 -0.0286924 0.132155 -0.0286924C0.605579 -0.0286924 1.98281 -0.0286924 2.37016 -0L2.37016 -0.41604L1.92543 -0.41604C0.662964 -0.41604 0.619925 -0.588194 0.619925 -1.10466ZM0.619925 -1.10466" fill="#fff"/>
  </g>
 </g>
 <path d="M226.772 56.6929L226.772 28.3465L255.118 28.3465L255.118 56.6929L226.772 56.6929" stroke="black"/>
 <path d="M237.433 47.1423L244.457 47.1423"/>
 <g transform="matrix(1.000000,-0.000000,-0.000000,1.000000,240.944882,47.142340)">
  <path d="M-2.92358 -0M2.91532 -4.59078C2.91532 -5.78152 2.84359 -6.94356 2.32712 -8.03387C1.73893 -9.2246 0.706003 -9.54022 0.00303899 -9.54022C-0.82904 -9.54022 -1.84762 -9.12418 -2.37843 -7.93345C-2.78012 -7.02964 -2.92358 -6.14017 -2.92358 -4.59078C-2.92358 -3.1992 -2.82316 -2.15193 -2.3067 -1.13335C-1.7472 -0.0430386 -0.757309 0.30127 -0.0113072 0.30127C1.23681 0.30127 1.95412 -0.444732 2.37016 -1.27681C2.88662 -2.35278 2.91532 -3.7587 2.91532 -4.59078ZM2.91532 -4.59078M-0.0113072 0.0143462C-0.470385 0.0143462 -1.40289 -0.243885 -1.67547 -1.80762C-1.83327 -2.66839 -1.83327 -3.7587 -1.83327 -4.76294C-1.83327 -5.93933 -1.83327 -7.00094 -1.60373 -7.84737C-1.35985 -8.80856 -0.628194 -9.2533 -0.0113072 -9.2533C0.533848 -9.2533 1.36593 -8.92333 1.63851 -7.68956C1.82501 -6.87183 1.82501 -5.73848 1.82501 -4.76294C1.82501 -3.80174 1.82501 -2.71143 1.6672 -1.83631C1.39462 -0.258232 0.49081 0.0143462 -0.0113072 0.0143462ZM-0.0113072 0.0143462" fill="#000"/>
 </g>
 <path d="M141.732 85.0394L141.732 56.6929L170.079 56.6929L170.079 85.0394L141.732 85.0394" stroke="black"/>
 <path d="M152.394 75.4888L159.417 75.4888"/>
 <g transform="matrix(1.000000,-0.000000,-0.000000,1.000000,155.905512,75.488797)">
  <path d="M-2.92358 -0M2.91532 -4.59078C2.91532 -5.78152 2.84359 -6.94356 2.32712 -8.03387C1.73893 -9.2246 0.706003 -9.54022 0.00303899 -9.54022C-0.82904 -9.54022 -1.84762 -9.12418 -2.37843 -7.93345C-2.78012 -7.02964 -2.92358 -6.14017 -2.92358 -4.59078C-2.92358 -3.1992 -2.82316 -2.15193 -2.3067 -1.13335C-1.7472 -0.0430386 -0.757309 0.30127 -0.0113072 0.30127C1.23681 0.30127 1.95412 -0.444732 2.37016 -1.27681C2.88662 -2.35278 2.91532 -3.7587 2.91532 -4.59078ZM2.91532 -4.59078M-0.0113072 0.0143462C-0.470385 0.0143462 -1.40289 -0.243885 -1.67547 -1.80762C-1.83327 -2.66839 -1.83327 -3.7587 -1.83327 -4.76294C-1.83327 -5.93933 -1.83327 -7.00094 -1.60373 -7.84737C-1.35985 -8.80856 -0.628194 -9.2533 -0.0113072 -9.2533C0.533848 -9.2533 1.36593 -8.92333 1.63851 -7.68956C1.82501 -6.87183 1.82501 -5.73848 1.82501 -4.76294C1.82501 -3.80174 1.82501 -2.71143 1.6672 -1.83631C1.39462 -0.258232 0.49081 0.0143462 -0.0113072 0.0143462ZM-0.0113072 0.0143462" fill="#000"/>
 </g>
 <path d="M170.079 85.0394L170.079 56.6929L198.425 56.6929L198.425 85.0394L170.079 85.0394" stroke="black"/>
 <path d="M180.74 75.4888L187.764 75.4888"/>
 <g transform="matrix(1.000000,-0.000000,-0.000000,1.000000,184.251969,75.488797)">
  <path d="M-2.92358 -0M2.91532 -4.59078C2.91532 -5.78152 2.84359 -6.94356 2.32712 -8.03387C1.73893 -9.2246 0.706003 -9.54022 0.00303899 -9.54022C-0.82904 -9.54022 -1.84762 -9.12418 -2.37843 -7.93345C-2.78012 -7.02964 -2.92358 -6.14017 -2.92358 -4.59078C-2.92358 -3.1992 -2.82316 -2.15193 -2.3067 -1.13335C-1.7472 -0.0430386 -0.757309 0.30127 -0.0113072 0.30127C1.23681 0.30127 1.95412 -0.444732 2.37016 -1.27681C2.88662 -2.35278 2.91532 -3.7587 2.91532 -4.59078ZM2.91532 -4.59078M-0.0113072 0.0143462C-0.470385 0.0143462 -1.40289 -0.243885 -1.67547 -1.80762C-1.83327 -2.66839 -1.83327 -3.7587 -1.83327 -4.76294C-1.83327 -5.93933 -1.83327 -7.00094 -1.60373 -7.84737C-1.35985 -8.80856 -0.628194 -9.2533 -0.0113072 -9.2533C0.533848 -9.2533 1.36593 -8.92333 1.63851 -7.68956C1.82501 -6.87183 1.82501 -5.73848 1.82501 -4.76294C1.82501 -3.80174 1.82501 -2.71143 1.6672 -1.83631C1.39462 -0.258232 0.49081 0.0143462 -0.0113072 0.0143462ZM-0.0113072 0.0143462" fill="#000"/>
 </g>
 <path d="M198.425 85.0394L198.425 56.6929L226.772 56.6929L226.772 85.0394L198.425 85.0394" stroke="black"/>
 <path d="M209.087 75.4888L216.11 75.4888"/>
 <g transform="matrix(1.000000,-0.000000,-0.000000,1.000000,212.598425,75.488797)">
  <path d="M-2.92358 -0M2.91532 -4.59078C2.91532 -5.78152 2.84359 -6.94356 2.32712 -8.03387C1.73893 -9.2246 0.706003 -9.54022 0.00303899 -9.54022C-0.82904 -9.54022 -1.84762 -9.12418 -2.37843 -7.93345C-2.78012 -7.02964 -2.92358 -6.14017 -2.92358 -4.59078C-2.92358 -3.1992 -2.82316 -2.15193 -2.3067 -1.13335C-1.7472 -0.0430386 -0.757309 0.30127 -0.0113072 0.30127C1.23681 0.30127 1.95412 -0.444732 2.37016 -1.27681C2.88662 -2.35278 2.91532 -3.7587 2.91532 -4.59078ZM2.91532 -4.59078M-0.0113072 0.0143462C-0.470385 0.0143462 -1.40289 -0.243885 -1.67547 -1.80762C-1.83327 -2.66839 -1.83327 -3.7587 -1.83327 -4.76294C-1.83327 -5.93933 -1.83327 -7.00094 -1.60373 -7.84737C-1.35985 -8.80856 -0.628194 -9.2533 -0.0113072 -9.2533C0.533848 -9.2533 1.36593 -8.92333 1.63851 -7.68956C1.82501 -6.87183 1.82501 -5.73848 1.82501 -4.76294C1.82501 -3.80174 1.82501 -2.71143 1.6672 -1.83631C1.39462 -0.258232 0.49081 0.0143462 -0.0113072 0.0143462ZM-0.0113072 0.0143462" fill="#000"/>
 </g>
 <path d="M226.772 85.0394L226.772 56.6929L255.118 56.6929L255.118 85.0394L226.772 85.0394" stroke="black"/>
 <path d="M237.433 75.4888L244.457 75.4888"/>
 <g transform="matrix(1.000000,-0.000000,-0.000000,1.000000,240.944882,75.488797)">
  <path d="M-2.92358 -0M2.91532 -4.59078C2.91532 -5.78152 2.84359 -6.94356 2.32712 -8.03387C1.73893 -9.2246 0.706003 -9.54022 0.00303899 -9.54022C-0.82904 -9.54022 -1.84762 -9.12418 -2.37843 -7.93345C-2.78012 -7.02964 -2.92358 -6.14017 -2.92358 -4.59078C-2.92358 -3.1992 -2.82316 -2.15193 -2.3067 -1.13335C-1.7472 -0.0430386 -0.757309 0.30127 -0.0113072 0.30127C1.23681 0.30127 1.95412 -0.444732 2.37016 -1.27681C2.88662 -2.35278 2.91532 -3.7587 2.91532 -4.59078ZM2.91532 -4.59078M-0.0113072 0.0143462C-0.470385 0.0143462 -1.40289 -0.243885 -1.67547 -1.80762C-1.83327 -2.66839 -1.83327 -3.7587 -1.83327 -4.76294C-1.83327 -5.93933 -1.83327 -7.00094 -1.60373 -7.84737C-1.35985 -8.80856 -0.628194 -9.2533 -0.0113072 -9.2533C0.533848 -9.2533 1.36593 -8.92333 1.63851 -7.68956C1.82501 -6.87183 1.82501 -5.73848 1.82501 -4.76294C1.82501 -3.80174 1.82501 -2.71143 1.6672 -1.83631C1.39462 -0.258232 0.49081 0.0143462 -0.0113072 0.0143462ZM-0.0113072 0.0143462" fill="#000"/>
 </g>
 <path d="M176.667 99.6355L220.184 99.6355"/>
 <g transform="matrix(1.000000,-0.000000,-0.000000,1.000000,198.425197,99.635470)">
  <path d="M-21.1904 -0M-17.9539 -5.85325C-16.4217 -5.85325 -15.7503 -4.52766 -15.7503 -2.99549C-15.7503 -0.929634 -16.8521 -0.137724 -17.8506 -0.137724C-18.763 -0.137724 -20.2435 -0.585325 -20.7083 -1.91091C-20.6222 -1.87648 -20.5362 -1.87648 -20.4501 -1.87648C-20.0369 -1.87648 -19.727 -2.15193 -19.727 -2.59953C-19.727 -3.09878 -20.1058 -3.32258 -20.4501 -3.32258C-20.7428 -3.32258 -21.1904 -3.18486 -21.1904 -2.54789C-21.1904 -0.964065 -19.641 0.275447 -17.8161 0.275447C-15.9052 0.275447 -14.4419 -1.2223 -14.4419 -2.97827C-14.4419 -4.64817 -15.8191 -5.85325 -17.4546 -6.04262C-16.1462 -6.31807 -14.8895 -7.48872 -14.8895 -9.05532C-14.8895 -10.3981 -16.2495 -11.3794 -17.7989 -11.3794C-19.3655 -11.3794 -20.7428 -10.4153 -20.7428 -9.03811C-20.7428 -8.43557 -20.2952 -8.33227 -20.0713 -8.33227C-19.7098 -8.33227 -19.3999 -8.55607 -19.3999 -9.00368C-19.3999 -9.45128 -19.7098 -9.67508 -20.0713 -9.67508C-20.1402 -9.67508 -20.2263 -9.67508 -20.2952 -9.64065C-19.7959 -10.7769 -18.4359 -10.9835 -17.8333 -10.9835C-17.2308 -10.9835 -16.0946 -10.6908 -16.0946 -9.03811C-16.0946 -8.55607 -16.1634 -7.6953 -16.7488 -6.93782C-17.2652 -6.26642 -17.8506 -6.23199 -18.4187 -6.18034C-18.5047 -6.18034 -18.9007 -6.14591 -18.9696 -6.14591C-19.0901 -6.1287 -19.1589 -6.11148 -19.1589 -5.99097C-19.1589 -5.87047 -19.1417 -5.85325 -18.7974 -5.85325ZM-18.7974 -5.85325" fill="#000"/>
 </g>
 <g transform="matrix(1.000000,-0.000000,-0.000000,1.000000,198.425197,99.635470)">
  <path d="M-13.1573 -0M-6.68432 -2.66839L-6.9942 -2.66839C-7.16635 -1.4461 -7.30408 -1.23951 -7.37294 -1.13622C-7.45902 -0.998496 -8.69853 -0.998496 -8.93954 -0.998496L-12.2449 -0.998496C-11.6252 -1.6699 -10.4201 -2.89219 -8.95676 -4.30386C-7.90662 -5.30236 -6.68432 -6.47301 -6.68432 -8.17733C-6.68432 -10.2088 -8.30257 -11.3794 -10.1102 -11.3794C-12.0039 -11.3794 -13.1573 -9.70951 -13.1573 -8.16012C-13.1573 -7.48872 -12.6581 -7.40264 -12.4515 -7.40264C-12.2793 -7.40264 -11.7629 -7.50593 -11.7629 -8.10847C-11.7629 -8.64215 -12.2105 -8.79709 -12.4515 -8.79709C-12.5548 -8.79709 -12.6581 -8.77987 -12.7269 -8.74544C-12.3998 -10.2088 -11.4014 -10.9318 -10.3512 -10.9318C-8.85347 -10.9318 -7.87219 -9.74394 -7.87219 -8.17733C-7.87219 -6.67959 -8.75017 -5.38843 -9.73145 -4.26943L-13.1573 -0.395955L-13.1573 -0L-7.09749 -0ZM-7.09749 -0" fill="#000"/>
 </g>
 <g transform="matrix(1.000000,-0.000000,-0.000000,1.000000,198.425197,99.635470)">
  <path d="M-5.26202 -0M1.21098 -2.66839L0.901106 -2.66839C0.728952 -1.4461 0.591228 -1.23951 0.522366 -1.13622C0.436289 -0.998496 -0.803223 -0.998496 -1.04424 -0.998496L-4.3496 -0.998496C-3.72985 -1.6699 -2.52477 -2.89219 -1.06145 -4.30386C-0.0113124 -5.30236 1.21098 -6.47301 1.21098 -8.17733C1.21098 -10.2088 -0.407268 -11.3794 -2.21489 -11.3794C-4.10859 -11.3794 -5.26202 -9.70951 -5.26202 -8.16012C-5.26202 -7.48872 -4.76277 -7.40264 -4.55619 -7.40264C-4.38403 -7.40264 -3.86757 -7.50593 -3.86757 -8.10847C-3.86757 -8.64215 -4.31517 -8.79709 -4.55619 -8.79709C-4.65948 -8.79709 -4.76277 -8.77987 -4.83164 -8.74544C-4.50454 -10.2088 -3.50605 -10.9318 -2.4559 -10.9318C-0.958162 -10.9318 0.0231185 -9.74394 0.0231185 -8.17733C0.0231185 -6.67959 -0.854869 -5.38843 -1.83615 -4.26943L-5.26202 -0.395955L-5.26202 -0L0.797813 -0ZM0.797813 -0" fill="#000"/>
 </g>
 <g transform="matrix(1.000000,-0.000000,-0.000000,1.000000,198.425197,99.635470)">
  <path d="M2.58164 -0M9.15793 -5.52616C9.15793 -6.5763 9.14072 -8.3667 8.41767 -9.74394C7.7807 -10.949 6.76499 -11.3794 5.86979 -11.3794C5.04344 -11.3794 3.9933 -11.0007 3.33912 -9.76115C2.6505 -8.47 2.58164 -6.86896 2.58164 -5.52616C2.58164 -4.54488 2.59885 -3.04713 3.13253 -1.73876C3.87279 0.0344309 5.19838 0.275447 5.86979 0.275447C6.6617 0.275447 7.86678 -0.0516463 8.57261 -1.68711C9.08907 -2.87498 9.15793 -4.26943 9.15793 -5.52616ZM9.15793 -5.52616M5.86979 -0C4.768 -0 4.11381 -0.946849 3.87279 -2.25522C3.68342 -3.27093 3.68342 -4.75146 3.68342 -5.71553C3.68342 -7.04112 3.68342 -8.1429 3.90722 -9.19305C4.23432 -10.6564 5.19838 -11.104 5.86979 -11.104C6.57562 -11.104 7.48804 -10.6391 7.81513 -9.22748C8.03893 -8.2462 8.05615 -7.09276 8.05615 -5.71553C8.05615 -4.59652 8.05615 -3.21929 7.84956 -2.20358C7.48804 -0.327093 6.47233 -0 5.86979 -0ZM5.86979 -0" fill="#000"/>
 </g>
 <g transform="matrix(1.000000,-0.000000,-0.000000,1.000000,198.425197,99.635470)">
  <path d="M10.7007 -0M19.4806 -10.5358C19.4806 -11.3105 19.67 -11.3105 20.8579 -11.3105L20.8579 -11.7581C20.3586 -11.7237 19.4462 -11.7237 18.9125 -11.7237C18.3788 -11.7237 17.4664 -11.7237 16.9672 -11.7581L16.9672 -11.3105C18.155 -11.3105 18.3444 -11.3105 18.3444 -10.5358L18.3444 -6.33528L13.2142 -6.33528L13.2142 -10.5358C13.2142 -11.3105 13.4036 -11.3105 14.5914 -11.3105L14.5914 -11.7581C14.0922 -11.7237 13.1798 -11.7237 12.6461 -11.7237C12.1124 -11.7237 11.2 -11.7237 10.7007 -11.7581L10.7007 -11.3105C11.8886 -11.3105 12.078 -11.3105 12.078 -10.5358L12.078 -1.2223C12.078 -0.447601 11.8886 -0.447601 10.7007 -0.447601L10.7007 -0C11.2 -0.0344309 12.1124 -0.0344309 12.6461 -0.0344309C13.1798 -0.0344309 14.0922 -0.0344309 14.5914 -0L14.5914 -0.447601C13.4036 -0.447601 13.2142 -0.447601 13.2142 -1.2223L13.2142 -5.88768L18.3444 -5.88768L18.3444 -1.2223C18.3444 -0.447601 18.155 -0.447601 16.9672 -0.447601L16.9672 -0C17.4664 -0.0344309 18.3788 -0.0344309 18.9125 -0.0344309C19.4462 -0.0344309 20.3586 -0.0344309 20.8579 -0L20.8579 -0.447601C19.67 -0.447601 19.4806 -0.447601 19.4806 -1.2223ZM19.4806 -1.2223" fill="#000"/>
 </g>
 <path d="M283.465 -0L283.465 -28.3465L311.811 -28.3465L311.811 -0L283.465 -0" stroke="black"/>
 <path d="M294.126 -9.55057L301.15 -9.55057"/>
 <g transform="matrix(1.000000,-0.000000,-0.000000,1.000000,297.637795,-9.550573)">
  <path d="M-2.92358 -0M2.91532 -4.59078C2.91532 -5.78152 2.84359 -6.94356 2.32712 -8.03387C1.73893 -9.2246 0.706003 -9.54022 0.00303899 -9.54022C-0.82904 -9.54022 -1.84762 -9.12418 -2.37843 -7.93345C-2.78012 -7.02964 -2.92358 -6.14017 -2.92358 -4.59078C-2.92358 -3.1992 -2.82316 -2.15193 -2.3067 -1.13335C-1.7472 -0.0430386 -0.757309 0.30127 -0.0113072 0.30127C1.23681 0.30127 1.95412 -0.444732 2.37016 -1.27681C2.88662 -2.35278 2.91532 -3.7587 2.91532 -4.59078ZM2.91532 -4.59078M-0.0113072 0.0143462C-0.470385 0.0143462 -1.40289 -0.243885 -1.67547 -1.80762C-1.83327 -2.66839 -1.83327 -3.7587 -1.83327 -4.76294C-1.83327 -5.93933 -1.83327 -7.00094 -1.60373 -7.84737C-1.35985 -8.80856 -0.628194 -9.2533 -0.0113072 -9.2533C0.533848 -9.2533 1.36593 -8.92333 1.63851 -7.68956C1.82501 -6.87183 1.82501 -5.73848 1.82501 -4.76294C1.82501 -3.80174 1.82501 -2.71143 1.6672 -1.83631C1.39462 -0.258232 0.49081 0.0143462 -0.0113072 0.0143462ZM-0.0113072 0.0143462" fill="#000"/>
 </g>
 <path d="M311.811 -0L311.811 -28.3465L340.157 -28.3465L340.157 -0L311.811 -0" stroke="black" fill="#000"/>
 <path d="M322.472 -9.55057L329.496 -9.55057"/>
 <g>
  <g transform="matrix(1.000000,-0.000000,-0.000000,1.000000,325.984252,-9.550573)">
   <path d="M-2.20628 -0M0.619925 -9.19591C0.619925 -9.52587 0.619925 -9.54022 0.333001 -9.54022C-0.0113072 -9.15287 -0.728617 -8.62206 -2.20628 -8.62206L-2.20628 -8.20602C-1.87631 -8.20602 -1.159 -8.20602 -0.369962 -8.57903L-0.369962 -1.10466C-0.369962 -0.588194 -0.413001 -0.41604 -1.67547 -0.41604L-2.1202 -0.41604L-2.1202 -0C-1.73285 -0.0286924 -0.34127 -0.0286924 0.132155 -0.0286924C0.605579 -0.0286924 1.98281 -0.0286924 2.37016 -0L2.37016 -0.41604L1.92543 -0.41604C0.662964 -0.41604 0.619925 -0.588194 0.619925 -1.10466ZM0.619925 -1.10466" fill="#fff"/>
  </g>
 </g>
 <path d="M340.157 -0L340.157 -28.3465L368.504 -28.3465L368.504 -0L340.157 -0" stroke="black"/>
 <path d="M350.819 -9.55057L357.842 -9.55057"/>
 <g transform="matrix(1.000000,-0.000000,-0.000000,1.000000,354.330709,-9.550573)">
  <path d="M-2.92358 -0M2.91532 -4.59078C2.91532 -5.78152 2.84359 -6.94356 2.32712 -8.03387C1.73893 -9.2246 0.706003 -9.54022 0.00303899 -9.54022C-0.82904 -9.54022 -1.84762 -9.12418 -2.37843 -7.93345C-2.78012 -7.02964 -2.92358 -6.14017 -2.92358 -4.59078C-2.92358 -3.1992 -2.82316 -2.15193 -2.3067 -1.13335C-1.7472 -0.0430386 -0.757309 0.30127 -0.0113072 0.30127C1.23681 0.30127 1.95412 -0.444732 2.37016 -1.27681C2.88662 -2.35278 2.91532 -3.7587 2.91532 -4.59078ZM2.91532 -4.59078M-0.0113072 0.0143462C-0.470385 0.0143462 -1.40289 -0.243885 -1.67547 -1.80762C-1.83327 -2.66839 -1.83327 -3.7587 -1.83327 -4.76294C-1.83327 -5.93933 -1.83327 -7.00094 -1.60373 -7.84737C-1.35985 -8.80856 -0.628194 -9.2533 -0.0113072 -9.2533C0.533848 -9.2533 1.36593 -8.92333 1.63851 -7.68956C1.82501 -6.87183 1.82501 -5.73848 1.82501 -4.76294C1.82501 -3.80174 1.82501 -2.71143 1.6672 -1.83631C1.39462 -0.258232 0.49081 0.0143462 -0.0113072 0.0143462ZM-0.0113072 0.0143462" fill="#000"/>
 </g>
 <path d="M368.504 -0L368.504 -28.3465L396.85 -28.3465L396.85 -0L368.504 -0" stroke="black"/>
 <path d="M379.165 -9.55057L386.189 -9.55057"/>
 <g transform="matrix(1.000000,-0.000000,-0.000000,1.000000,382.677165,-9.550573)">
  <path d="M-2.92358 -0M2.91532 -4.59078C2.91532 -5.78152 2.84359 -6.94356 2.32712 -8.03387C1.73893 -9.2246 0.706003 -9.54022 0.00303899 -9.54022C-0.82904 -9.54022 -1.84762 -9.12418 -2.37843 -7.93345C-2.78012 -7.02964 -2.92358 -6.14017 -2.92358 -4.59078C-2.92358 -3.1992 -2.82316 -2.15193 -2.3067 -1.13335C-1.7472 -0.0430386 -0.757309 0.30127 -0.0113072 0.30127C1.23681 0.30127 1.95412 -0.444732 2.37016 -1.27681C2.88662 -2.35278 2.91532 -3.7587 2.91532 -4.59078ZM2.91532 -4.59078M-0.0113072 0.0143462C-0.470385 0.0143462 -1.40289 -0.243885 -1.67547 -1.80762C-1.83327 -2.66839 -1.83327 -3.7587 -1.83327 -4.76294C-1.83327 -5.93933 -1.83327 -7.00094 -1.60373 -7.84737C-1.35985 -8.80856 -0.628194 -9.2533 -0.0113072 -9.2533C0.533848 -9.2533 1.36593 -8.92333 1.63851 -7.68956C1.82501 -6.87183 1.82501 -5.73848 1.82501 -4.76294C1.82501 -3.80174 1.82501 -2.71143 1.6672 -1.83631C1.39462 -0.258232 0.49081 0.0143462 -0.0113072 0.0143462ZM-0.0113072 0.0143462" fill="#000"/>
 </g>
 <path d="M283.465 28.3465L283.465 -0L311.811 -0L311.811 28.3465L283.465 28.3465" stroke="black"/>
 <path d="M294.126 18.7959L301.15 18.7959"/>
 <g transform="matrix(1.000000,-0.000000,-0.000000,1.000000,297.637795,18.795883)">
  <path d="M-2.92358 -0M2.91532 -4.59078C2.91532 -5.78152 2.84359 -6.94356 2.32712 -8.03387C1.73893 -9.2246 0.706003 -9.54022 0.00303899 -9.54022C-0.82904 -9.54022 -1.84762 -9.12418 -2.37843 -7.93345C-2.78012 -7.02964 -2.92358 -6.14017 -2.92358 -4.59078C-2.92358 -3.1992 -2.82316 -2.15193 -2.3067 -1.13335C-1.7472 -0.0430386 -0.757309 0.30127 -0.0113072 0.30127C1.23681 0.30127 1.95412 -0.444732 2.37016 -1.27681C2.88662 -2.35278 2.91532 -3.7587 2.91532 -4.59078ZM2.91532 -4.59078M-0.0113072 0.0143462C-0.470385 0.0143462 -1.40289 -0.243885 -1.67547 -1.80762C-1.83327 -2.66839 -1.83327 -3.7587 -1.83327 -4.76294C-1.83327 -5.93933 -1.83327 -7.00094 -1.60373 -7.84737C-1.35985 -8.80856 -0.628194 -9.2533 -0.0113072 -9.2533C0.533848 -9.2533 1.36593 -8.92333 1.63851 -7.68956C1.82501 -6.87183 1.82501 -5.73848 1.82501 -4.76294C1.82501 -3.80174 1.82501 -2.71143 1.6672 -1.83631C1.39462 -0.258232 0.49081 0.0143462 -0.0113072 0.0143462ZM-0.0113072 0.0143462" fill="#000"/>
 </g>
 <path d="M311.811 28.3465L311.811 -0L340.157 -0L340.157 28.3465L311.811 28.3465" stroke="black" fill="#000"/>
 <path d="M322.472 18.7959L329.496 18.7959"/>
 <g>
  <g transform="matrix(1.000000,-0.000000,-0.000000,1.000000,325.984252,18.795883)">
   <path d="M-2.20628 -0M0.619925 -9.19591C0.619925 -9.52587 0.619925 -9.54022 0.333001 -9.54022C-0.0113072 -9.15287 -0.728617 -8.62206 -2.20628 -8.62206L-2.20628 -8.20602C-1.87631 -8.20602 -1.159 -8.20602 -0.369962 -8.57903L-0.369962 -1.10466C-0.369962 -0.588194 -0.413001 -0.41604 -1.67547 -0.41604L-2.1202 -0.41604L-2.1202 -0C-1.73285 -0.0286924 -0.34127 -0.0286924 0.132155 -0.0286924C0.605579 -0.0286924 1.98281 -0.0286924 2.37016 -0L2.37016 -0.41604L1.92543 -0.41604C0.662964 -0.41604 0.619925 -0.588194 0.619925 -1.10466ZM0.619925 -1.10466" fill="#fff"/>
  </g>
 </g>
 <path d="M340.157 28.3465L340.157 -0L368.504 -0L368.504 28.3465L340.157 28.3465" stroke="black" fill="#000"/>
 <path d="M350.819 18.7959L357.842 18.7959"/>
 <g>
  <g transform="matrix(1.000000,-0.000000,-0.000000,1.000000,354.330709,18.795883)">
   <path d="M-2.20628 -0M0.619925 -9.19591C0.619925 -9.52587 0.619925 -9.54022 0.333001 -9.54022C-0.0113072 -9.15287 -0.728617 -8.62206 -2.20628 -8.62206L-2.20628 -8.20602C-1.87631 -8.20602 -1.159 -8.20602 -0.369962 -8.57903L-0.369962 -1.10466C-0.369962 -0.588194 -0.413001 -0.41604 -1.67547 -0.41604L-2.1202 -0.41604L-2.1202 -0C-1.73285 -0.0286924 -0.34127 -0.0286924 0.132155 -0.0286924C0.605579 -0.0286924 1.98281 -0.0286924 2.37016 -0L2.37016 -0.41604L1.92543 -0.41604C0.662964 -0.41604 0.619925 -0.588194 0.619925 -1.10466ZM0.619925 -1.10466" fill="#fff"/>
  </g>
 </g>
 <path d="M368.504 28.3465L368.504 -0L396.85 -0L396.85 28.3465L368.504 28.3465" stroke="black" fill="#000"/>
 <path d="M379.165 18.7959L386.189 18.7959"/>
 <g>
  <g transform="matrix(1.000000,-0.000000,-0.000000,1.000000,382.677165,18.795883)">
   <path d="M-2.20628 -0M0.619925 -9.19591C0.619925 -9.52587 0.619925 -9.54022 0.333001 -9.54022C-0.0113072 -9.15287 -0.728617 -8.62206 -2.20628 -8.62206L-2.20628 -8.20602C-1.87631 -8.20602 -1.159 -8.20602 -0.369962 -8.57903L-0.369962 -1.10466C-0.369962 -0.588194 -0.413001 -0.41604 -1.67547 -0.41604L-2.1202 -0.41604L-2.1202 -0C-1.73285 -0.0286924 -0.34127 -0.0286924 0.132155 -0.0286924C0.605579 -0.0286924 1.98281 -0.0286924 2.37016 -0L2.37016 -0.41604L1.92543 -0.41604C0.662964 -0.41604 0.619925 -0.588194 0.619925 -1.10466ZM0.619925 -1.10466" fill="#fff"/>
  </g>
 </g>
 <path d="M283.465 56.6929L283.465 28.3465L311.811 28.3465L311.811 56.6929L283.465 56.6929" stroke="black"/>
 <path d="M294.126 47.1423L301.15 47.1423"/>
 <g transform="matrix(1.000000,-0.000000,-0.000000,1.000000,297.637795,47.142340)">
  <path d="M-2.92358 -0M2.91532 -4.59078C2.91532 -5.78152 2.84359 -6.94356 2.32712 -8.03387C1.73893 -9.2246 0.706003 -9.54022 0.00303899 -9.54022C-0.82904 -9.54022 -1.84762 -9.12418 -2.37843 -7.93345C-2.78012 -7.02964 -2.92358 -6.14017 -2.92358 -4.59078C-2.92358 -3.1992 -2.82316 -2.15193 -2.3067 -1.13335C-1.7472 -0.0430386 -0.757309 0.30127 -0.0113072 0.30127C1.23681 0.30127 1.95412 -0.444732 2.37016 -1.27681C2.88662 -2.35278 2.91532 -3.7587 2.91532 -4.59078ZM2.91532 -4.59078M-0.0113072 0.0143462C-0.470385 0.0143462 -1.40289 -0.243885 -1.67547 -1.80762C-1.83327 -2.66839 -1.83327 -3.7587 -1.83327 -4.76294C-1.83327 -5.93933 -1.83327 -7.00094 -1.60373 -7.84737C-1.35985 -8.80856 -0.628194 -9.2533 -0.0113072 -9.2533C0.533848 -9.2533 1.36593 -8.92333 1.63851 -7.68956C1.82501 -6.87183 1.82501 -5.73848 1.82501 -4.76294C1.82501 -3.80174 1.82501 -2.71143 1.6672 -1.83631C1.39462 -0.258232 0.49081 0.0143462 -0.0113072 0.0143462ZM-0.0113072 0.0143462" fill="#000"/>
 </g>
 <path d="M311.811 56.6929L311.811 28.3465L340.157 28.3465L340.157 56.6929L311.811 56.6929" stroke="black"/>
 <path d="M322.472 47.1423L329.496 47.1423"/>
 <g transform="matrix(1.000000,-0.000000,-0.000000,1.000000,325.984252,47.142340)">
  <path d="M-2.92358 -0M2.91532 -4.59078C2.91532 -5.78152 2.84359 -6.94356 2.32712 -8.03387C1.73893 -9.2246 0.706003 -9.54022 0.00303899 -9.54022C-0.82904 -9.54022 -1.84762 -9.12418 -2.37843 -7.93345C-2.78012 -7.02964 -2.92358 -6.14017 -2.92358 -4.59078C-2.92358 -3.1992 -2.82316 -2.15193 -2.3067 -1.13335C-1.7472 -0.0430386 -0.757309 0.30127 -0.0113072 0.30127C1.23681 0.30127 1.95412 -0.444732 2.37016 -1.27681C2.88662 -2.35278 2.91532 -3.7587 2.91532 -4.59078ZM2.91532 -4.59078M-0.0113072 0.0143462C-0.470385 0.0143462 -1.40289 -0.243885 -1.67547 -1.80762C-1.83327 -2.66839 -1.83327 -3.7587 -1.83327 -4.76294C-1.83327 -5.93933 -1.83327 -7.00094 -1.60373 -7.84737C-1.35985 -8.80856 -0.628194 -9.2533 -0.0113072 -9.2533C0.533848 -9.2533 1.36593 -8.92333 1.63851 -7.68956C1.82501 -6.87183 1.82501 -5.73848 1.82501 -4.76294C1.82501 -3.80174 1.82501 -2.71143 1.6672 -1.83631C1.39462 -0.258232 0.49081 0.0143462 -0.0113072 0.0143462ZM-0.0113072 0.0143462" fill="#000"/>
 </g>
 <path d="M340.157 56.6929L340.157 28.3465L368.504 28.3465L368.504 56.6929L340.157 56.6929" stroke="black"/>
 <path d="M350.819 47.1423L357.842 47.1423"/>
 <g transform="matrix(1.000000,-0.000000,-0.000000,1.000000,354.330709,47.142340)">
  <path d="M-2.92358 -0M2.91532 -4.59078C2.91532 -5.78152 2.84359 -6.94356 2.32712 -8.03387C1.73893 -9.2246 0.706003 -9.54022 0.00303899 -9.54022C-0.82904 -9.54022 -1.84762 -9.12418 -2.37843 -7.93345C-2.78012 -7.02964 -2.92358 -6.14017 -2.92358 -4.59078C-2.92358 -3.1992 -2.82316 -2.15193 -2.3067 -1.13335C-1.7472 -0.0430386 -0.757309 0.30127 -0.0113072 0.30127C1.23681 0.30127 1.95412 -0.444732 2.37016 -1.27681C2.88662 -2.35278 2.91532 -3.7587 2.91532 -4.59078ZM2.91532 -4.59078M-0.0113072 0.0143462C-0.470385 0.0143462 -1.40289 -0.243885 -1.67547 -1.80762C-1.83327 -2.66839 -1.83327 -3.7587 -1.83327 -4.76294C-1.83327 -5.93933 -1.83327 -7.00094 -1.60373 -7.84737C-1.35985 -8.80856 -0.628194 -9.2533 -0.0113072 -9.2533C0.533848 -9.2533 1.36593 -8.92333 1.63851 -7.68956C1.82501 -6.87183 1.82501 -5.73848 1.82501 -4.76294C1.82501 -3.80174 1.82501 -2.71143 1.6672 -1.83631C1.39462 -0.258232 0.49081 0.0143462 -0.0113072 0.0143462ZM-0.0113072 0.0143462" fill="#000"/>
 </g>
 <path d="M368.504 56.6929L368.504 28.3465L396.85 28.3465L396.85 56.6929L368.504 56.6929" stroke="black"/>
 <path d="M379.165 47.1423L386.189 47.1423"/>
 <g transform="matrix(1.000000,-0.000000,-0.000000,1.000000,382.677165,47.142340)">
  <path d="M-2.92358 -0M2.91532 -4.59078C2.91532 -5.78152 2.84359 -6.94356 2.32712 -8.03387C1.73893 -9.2246 0.706003 -9.54022 0.00303899 -9.54022C-0.82904 -9.54022 -1.84762 -9.12418 -2.37843 -7.93345C-2.78012 -7.02964 -2.92358 -6.14017 -2.92358 -4.59078C-2.92358 -3.1992 -2.82316 -2.15193 -2.3067 -1.13335C-1.7472 -0.0430386 -0.757309 0.30127 -0.0113072 0.30127C1.23681 0.30127 1.95412 -0.444732 2.37016 -1.27681C2.88662 -2.35278 2.91532 -3.7587 2.91532 -4.59078ZM2.91532 -4.59078M-0.0113072 0.0143462C-0.470385 0.0143462 -1.40289 -0.243885 -1.67547 -1.80762C-1.83327 -2.66839 -1.83327 -3.7587 -1.83327 -4.76294C-1.83327 -5.93933 -1.83327 -7.00094 -1.60373 -7.84737C-1.35985 -8.80856 -0.628194 -9.2533 -0.0113072 -9.2533C0.533848 -9.2533 1.36593 -8.92333 1.63851 -7.68956C1.82501 -6.87183 1.82501 -5.73848 1.82501 -4.76294C1.82501 -3.80174 1.82501 -2.71143 1.6672 -1.83631C1.39462 -0.258232 0.49081 0.0143462 -0.0113072 0.0143462ZM-0.0113072 0.0143462" fill="#000"/>
 </g>
 <path d="M283.465 85.0394L283.465 56.6929L311.811 56.6929L311.811 85.0394L283.465 85.0394" stroke="black"/>
 <path d="M294.126 75.4888L301.15 75.4888"/>
 <g transform="matrix(1.000000,-0.000000,-0.000000,1.000000,297.637795,75.488797)">
  <path d="M-2.92358 -0M2.91532 -4.59078C2.91532 -5.78152 2.84359 -6.94356 2.32712 -8.03387C1.73893 -9.2246 0.706003 -9.54022 0.00303899 -9.54022C-0.82904 -9.54022 -1.84762 -9.12418 -2.37843 -7.93345C-2.78012 -7.02964 -2.92358 -6.14017 -2.92358 -4.59078C-2.92358 -3.1992 -2.82316 -2.15193 -2.3067 -1.13335C-1.7472 -0.0430386 -0.757309 0.30127 -0.0113072 0.30127C1.23681 0.30127 1.95412 -0.444732 2.37016 -1.27681C2.88662 -2.35278 2.91532 -3.7587 2.91532 -4.59078ZM2.91532 -4.59078M-0.0113072 0.0143462C-0.470385 0.0143462 -1.40289 -0.243885 -1.67547 -1.80762C-1.83327 -2.66839 -1.83327 -3.7587 -1.83327 -4.76294C-1.83327 -5.93933 -1.83327 -7.00094 -1.60373 -7.84737C-1.35985 -8.80856 -0.628194 -9.2533 -0.0113072 -9.2533C0.533848 -9.2533 1.36593 -8.92333 1.63851 -7.68956C1.82501 -6.87183 1.82501 -5.73848 1.82501 -4.76294C1.82501 -3.80174 1.82501 -2.71143 1.6672 -1.83631C1.39462 -0.258232 0.49081 0.0143462 -0.0113072 0.0143462ZM-0.0113072 0.0143462" fill="#000"/>
 </g>
 <path d="M311.811 85.0394L311.811 56.6929L340.157 56.6929L340.157 85.0394L311.811 85.0394" stroke="black"/>
 <path d="M322.472 75.4888L329.496 75.4888"/>
 <g transform="matrix(1.000000,-0.000000,-0.000000,1.000000,325.984252,75.488797)">
  <path d="M-2.92358 -0M2.91532 -4.59078C2.91532 -5.78152 2.84359 -6.94356 2.32712 -8.03387C1.73893 -9.2246 0.706003 -9.54022 0.00303899 -9.54022C-0.82904 -9.54022 -1.84762 -9.12418 -2.37843 -7.93345C-2.78012 -7.02964 -2.92358 -6.14017 -2.92358 -4.59078C-2.92358 -3.1992 -2.82316 -2.15193 -2.3067 -1.13335C-1.7472 -0.0430386 -0.757309 0.30127 -0.0113072 0.30127C1.23681 0.30127 1.95412 -0.444732 2.37016 -1.27681C2.88662 -2.35278 2.91532 -3.7587 2.91532 -4.59078ZM2.91532 -4.59078M-0.0113072 0.0143462C-0.470385 0.0143462 -1.40289 -0.243885 -1.67547 -1.80762C-1.83327 -2.66839 -1.83327 -3.7587 -1.83327 -4.76294C-1.83327 -5.93933 -1.83327 -7.00094 -1.60373 -7.84737C-1.35985 -8.80856 -0.628194 -9.2533 -0.0113072 -9.2533C0.533848 -9.2533 1.36593 -8.92333 1.63851 -7.68956C1.82501 -6.87183 1.82501 -5.73848 1.82501 -4.76294C1.82501 -3.80174 1.82501 -2.71143 1.6672 -1.83631C1.39462 -0.258232 0.49081 0.0143462 -0.0113072 0.0143462ZM-0.0113072 0.0143462" fill="#000"/>
 </g>
 <path d="M340.157 85.0394L340.157 56.6929L368.504 56.6929L368.504 85.0394L340.157 85.0394" stroke="black"/>
 <path d="M350.819 75.4888L357.842 75.4888"/>
 <g transform="matrix(1.000000,-0.000000,-0.000000,1.000000,354.330709,75.488797)">
  <path d="M-2.92358 -0M2.91532 -4.59078C2.91532 -5.78152 2.84359 -6.94356 2.32712 -8.03387C1.73893 -9.2246 0.706003 -9.54022 0.00303899 -9.54022C-0.82904 -9.54022 -1.84762 -9.12418 -2.37843 -7.93345C-2.78012 -7.02964 -2.92358 -6.14017 -2.92358 -4.59078C-2.92358 -3.1992 -2.82316 -2.15193 -2.3067 -1.13335C-1.7472 -0.0430386 -0.757309 0.30127 -0.0113072 0.30127C1.23681 0.30127 1.95412 -0.444732 2.37016 -1.27681C2.88662 -2.35278 2.91532 -3.7587 2.91532 -4.59078ZM2.91532 -4.59078M-0.0113072 0.0143462C-0.470385 0.0143462 -1.40289 -0.243885 -1.67547 -1.80762C-1.83327 -2.66839 -1.83327 -3.7587 -1.83327 -4.76294C-1.83327 -5.93933 -1.83327 -7.00094 -1.60373 -7.84737C-1.35985 -8.80856 -0.628194 -9.2533 -0.0113072 -9.2533C0.533848 -9.2533 1.36593 -8.92333 1.63851 -7.68956C1.82501 -6.87183 1.82501 -5.73848 1.82501 -4.76294C1.82501 -3.80174 1.82501 -2.71143 1.6672 -1.83631C1.39462 -0.258232 0.49081 0.0143462 -0.0113072 0.0143462ZM-0.0113072 0.0143462" fill="#000"/>
 </g>
 <path d="M368.504 85.0394L368.504 56.6929L396.85 56.6929L396.85 85.0394L368.504 85.0394" stroke="black"/>
 <path d="M379.165 75.4888L386.189 75.4888"/>
 <g transform="matrix(1.000000,-0.000000,-0.000000,1.000000,382.677165,75.488797)">
  <path d="M-2.92358 -0M2.91532 -4.59078C2.91532 -5.78152 2.84359 -6.94356 2.32712 -8.03387C1.73893 -9.2246 0.706003 -9.54022 0.00303899 -9.54022C-0.82904 -9.54022 -1.84762 -9.12418 -2.37843 -7.93345C-2.78012 -7.02964 -2.92358 -6.14017 -2.92358 -4.59078C-2.92358 -3.1992 -2.82316 -2.15193 -2.3067 -1.13335C-1.7472 -0.0430386 -0.757309 0.30127 -0.0113072 0.30127C1.23681 0.30127 1.95412 -0.444732 2.37016 -1.27681C2.88662 -2.35278 2.91532 -3.7587 2.91532 -4.59078ZM2.91532 -4.59078M-0.0113072 0.0143462C-0.470385 0.0143462 -1.40289 -0.243885 -1.67547 -1.80762C-1.83327 -2.66839 -1.83327 -3.7587 -1.83327 -4.76294C-1.83327 -5.93933 -1.83327 -7.00094 -1.60373 -7.84737C-1.35985 -8.80856 -0.628194 -9.2533 -0.0113072 -9.2533C0.533848 -9.2533 1.36593 -8.92333 1.63851 -7.68956C1.82501 -6.87183 1.82501 -5.73848 1.82501 -4.76294C1.82501 -3.80174 1.82501 -2.71143 1.6672 -1.83631C1.39462 -0.258232 0.49081 0.0143462 -0.0113072 0.0143462ZM-0.0113072 0.0143462" fill="#000"/>
 </g>
 <path d="M318.399 99.6355L361.916 99.6355"/>
 <g transform="matrix(1.000000,-0.000000,-0.000000,1.000000,340.157480,99.635470)">
  <path d="M-21.4142 -0M-15.9741 -11.1384C-15.9741 -11.4999 -15.9913 -11.5171 -16.3012 -11.5171L-21.4142 -3.37423L-21.4142 -2.92662L-16.9726 -2.92662L-16.9726 -1.23951C-16.9726 -0.619756 -17.007 -0.447601 -18.2121 -0.447601L-18.5392 -0.447601L-18.5392 -0C-17.9883 -0.0344309 -17.0586 -0.0344309 -16.4733 -0.0344309C-15.888 -0.0344309 -14.9584 -0.0344309 -14.4075 -0L-14.4075 -0.447601L-14.7346 -0.447601C-15.9396 -0.447601 -15.9741 -0.619756 -15.9741 -1.23951L-15.9741 -2.92662L-14.2181 -2.92662L-14.2181 -3.37423L-15.9741 -3.37423ZM-15.9741 -3.37423M-16.9209 -10.0022L-16.9209 -3.37423L-21.0698 -3.37423ZM-21.0698 -3.37423" fill="#000"/>
 </g>
 <g transform="matrix(1.000000,-0.000000,-0.000000,1.000000,340.157480,99.635470)">
  <path d="M-13.0712 -0M-6.099 -10.7252L-6.099 -11.104L-10.1446 -11.104C-12.1588 -11.104 -12.1933 -11.3278 -12.2621 -11.6549L-12.572 -11.6549L-13.0712 -8.43557L-12.7614 -8.43557C-12.7097 -8.76266 -12.5892 -9.64065 -12.3826 -9.96774C-12.2793 -10.1055 -11.0054 -10.1055 -10.7127 -10.1055L-6.92534 -10.1055L-8.83625 -7.26492C-10.1102 -5.354 -10.9882 -2.77169 -10.9882 -0.516463C-10.9882 -0.309878 -10.9882 0.275447 -10.3684 0.275447C-9.74867 0.275447 -9.74867 -0.309878 -9.74867 -0.533679L-9.74867 -1.32559C-9.74867 -4.14892 -9.26664 -6.00819 -8.47473 -7.19605ZM-8.47473 -7.19605" fill="#000"/>
 </g>
 <g transform="matrix(1.000000,-0.000000,-0.000000,1.000000,340.157480,99.635470)">
  <path d="M-5.31367 -0M1.26263 -5.52616C1.26263 -6.5763 1.24541 -8.3667 0.522366 -9.74394C-0.114605 -10.949 -1.13032 -11.3794 -2.02552 -11.3794C-2.85186 -11.3794 -3.902 -11.0007 -4.55619 -9.76115C-5.24481 -8.47 -5.31367 -6.86896 -5.31367 -5.52616C-5.31367 -4.54488 -5.29645 -3.04713 -4.76277 -1.73876C-4.02251 0.0344309 -2.69692 0.275447 -2.02552 0.275447C-1.23361 0.275447 -0.0285278 -0.0516463 0.677305 -1.68711C1.19377 -2.87498 1.26263 -4.26943 1.26263 -5.52616ZM1.26263 -5.52616M-2.02552 -0C-3.12731 -0 -3.78149 -0.946849 -4.02251 -2.25522C-4.21188 -3.27093 -4.21188 -4.75146 -4.21188 -5.71553C-4.21188 -7.04112 -4.21188 -8.1429 -3.98808 -9.19305C-3.66099 -10.6564 -2.69692 -11.104 -2.02552 -11.104C-1.31969 -11.104 -0.407268 -10.6391 -0.0801741 -9.22748C0.143627 -8.2462 0.160842 -7.09276 0.160842 -5.71553C0.160842 -4.59652 0.160842 -3.21929 -0.0457433 -2.20358C-0.407268 -0.327093 -1.42298 -0 -2.02552 -0ZM-2.02552 -0" fill="#000"/>
 </g>
 <g transform="matrix(1.000000,-0.000000,-0.000000,1.000000,340.157480,99.635470)">
  <path d="M2.58164 -0M9.15793 -5.52616C9.15793 -6.5763 9.14072 -8.3667 8.41767 -9.74394C7.7807 -10.949 6.76499 -11.3794 5.86979 -11.3794C5.04344 -11.3794 3.9933 -11.0007 3.33912 -9.76115C2.6505 -8.47 2.58164 -6.86896 2.58164 -5.52616C2.58164 -4.54488 2.59885 -3.04713 3.13253 -1.73876C3.87279 0.0344309 5.19838 0.275447 5.86979 0.275447C6.6617 0.275447 7.86678 -0.0516463 8.57261 -1.68711C9.08907 -2.87498 9.15793 -4.26943 9.15793 -5.52616ZM9.15793 -5.52616M5.86979 -0C4.768 -0 4.11381 -0.946849 3.87279 -2.25522C3.68342 -3.27093 3.68342 -4.75146 3.68342 -5.71553C3.68342 -7.04112 3.68342 -8.1429 3.90722 -9.19305C4.23432 -10.6564 5.19838 -11.104 5.86979 -11.104C6.57562 -11.104 7.48804 -10.6391 7.81513 -9.22748C8.03893 -8.2462 8.05615 -7.09276 8.05615 -5.71553C8.05615 -4.59652 8.05615 -3.21929 7.84956 -2.20358C7.48804 -0.327093 6.47233 -0 5.86979 -0ZM5.86979 -0" fill="#000"/>
 </g>
 <g transform="matrix(1.000000,-0.000000,-0.000000,1.000000,340.157480,99.635470)">
  <path d="M10.7007 -0M19.4806 -10.5358C19.4806 -11.3105 19.67 -11.3105 20.8579 -11.3105L20.8579 -11.7581C20.3586 -11.7237 19.4462 -11.7237 18.9125 -11.7237C18.3788 -11.7237 17.4664 -11.7237 16.9672 -11.7581L16.9672 -11.3105C18.155 -11.3105 18.3444 -11.3105 18.3444 -10.5358L18.3444 -6.33528L13.2142 -6.33528L13.2142 -10.5358C13.2142 -11.3105 13.4036 -11.3105 14.5914 -11.3105L14.5914 -11.7581C14.0922 -11.7237 13.1798 -11.7237 12.6461 -11.7237C12.1124 -11.7237 11.2 -11.7237 10.7007 -11.7581L10.7007 -11.3105C11.8886 -11.3105 12.078 -11.3105 12.078 -10.5358L12.078 -1.2223C12.078 -0.447601 11.8886 -0.447601 10.7007 -0.447601L10.7007 -0C11.2 -0.0344309 12.1124 -0.0344309 12.6461 -0.0344309C13.1798 -0.0344309 14.0922 -0.0344309 14.5914 -0L14.5914 -0.447601C13.4036 -0.447601 13.2142 -0.447601 13.2142 -1.2223L13.2142 -5.88768L18.3444 -5.88768L18.3444 -1.2223C18.3444 -0.447601 18.155 -0.447601 16.9672 -0.447601L16.9672 -0C17.4664 -0.0344309 18.3788 -0.0344309 18.9125 -0.0344309C19.4462 -0.0344309 20.3586 -0.0344309 20.8579 -0L20.8579 -0.447601C19.67 -0.447601 19.4806 -0.447601 19.4806 -1.2223ZM19.4806 -1.2223" fill="#000"/>
 </g>
 <path d="M425.197 -0L425.197 -28.3465L453.543 -28.3465L453.543 -0L425.197 -0" stroke="black"/>
 <path d="M435.858 -9.55057L442.882 -9.55057"/>
 <g transform="matrix(1.000000,-0.000000,-0.000000,1.000000,439.370079,-9.550573)">
  <path d="M-2.92358 -0M2.91532 -4.59078C2.91532 -5.78152 2.84359 -6.94356 2.32712 -8.03387C1.73893 -9.2246 0.706003 -9.54022 0.00303899 -9.54022C-0.82904 -9.54022 -1.84762 -9.12418 -2.37843 -7.93345C-2.78012 -7.02964 -2.92358 -6.14017 -2.92358 -4.59078C-2.92358 -3.1992 -2.82316 -2.15193 -2.3067 -1.13335C-1.7472 -0.0430386 -0.757309 0.30127 -0.0113072 0.30127C1.23681 0.30127 1.95412 -0.444732 2.37016 -1.27681C2.88662 -2.35278 2.91532 -3.7587 2.91532 -4.59078ZM2.91532 -4.59078M-0.0113072 0.0143462C-0.470385 0.0143462 -1.40289 -0.243885 -1.67547 -1.80762C-1.83327 -2.66839 -1.83327 -3.7587 -1.83327 -4.76294C-1.83327 -5.93933 -1.83327 -7.00094 -1.60373 -7.84737C-1.35985 -8.80856 -0.628194 -9.2533 -0.0113072 -9.2533C0.533848 -9.2533 1.36593 -8.92333 1.63851 -7.68956C1.82501 -6.87183 1.82501 -5.73848 1.82501 -4.76294C1.82501 -3.80174 1.82501 -2.71143 1.6672 -1.83631C1.39462 -0.258232 0.49081 0.0143462 -0.0113072 0.0143462ZM-0.0113072 0.0143462" fill="#000"/>
 </g>
 <path d="M453.543 -0L453.543 -28.3465L481.89 -28.3465L481.89 -0L453.543 -0" stroke="black"/>
 <path d="M464.205 -9.55057L471.228 -9.55057"/>
 <g transform="matrix(1.000000,-0.000000,-0.000000,1.000000,467.716535,-9.550573)">
  <path d="M-2.92358 -0M2.91532 -4.59078C2.91532 -5.78152 2.84359 -6.94356 2.32712 -8.03387C1.73893 -9.2246 0.706003 -9.54022 0.00303899 -9.54022C-0.82904 -9.54022 -1.84762 -9.12418 -2.37843 -7.93345C-2.78012 -7.02964 -2.92358 -6.14017 -2.92358 -4.59078C-2.92358 -3.1992 -2.82316 -2.15193 -2.3067 -1.13335C-1.7472 -0.0430386 -0.757309 0.30127 -0.0113072 0.30127C1.23681 0.30127 1.95412 -0.444732 2.37016 -1.27681C2.88662 -2.35278 2.91532 -3.7587 2.91532 -4.59078ZM2.91532 -4.59078M-0.0113072 0.0143462C-0.470385 0.0143462 -1.40289 -0.243885 -1.67547 -1.80762C-1.83327 -2.66839 -1.83327 -3.7587 -1.83327 -4.76294C-1.83327 -5.93933 -1.83327 -7.00094 -1.60373 -7.84737C-1.35985 -8.80856 -0.628194 -9.2533 -0.0113072 -9.2533C0.533848 -9.2533 1.36593 -8.92333 1.63851 -7.68956C1.82501 -6.87183 1.82501 -5.73848 1.82501 -4.76294C1.82501 -3.80174 1.82501 -2.71143 1.6672 -1.83631C1.39462 -0.258232 0.49081 0.0143462 -0.0113072 0.0143462ZM-0.0113072 0.0143462" fill="#000"/>
 </g>
 <path d="M481.89 -0L481.89 -28.3465L510.236 -28.3465L510.236 -0L481.89 -0" stroke="black" fill="#000"/>
 <path d="M492.551 -9.55057L499.575 -9.55057"/>
 <g>
  <g transform="matrix(1.000000,-0.000000,-0.000000,1.000000,496.062992,-9.550573)">
   <path d="M-2.20628 -0M0.619925 -9.19591C0.619925 -9.52587 0.619925 -9.54022 0.333001 -9.54022C-0.0113072 -9.15287 -0.728617 -8.62206 -2.20628 -8.62206L-2.20628 -8.20602C-1.87631 -8.20602 -1.159 -8.20602 -0.369962 -8.57903L-0.369962 -1.10466C-0.369962 -0.588194 -0.413001 -0.41604 -1.67547 -0.41604L-2.1202 -0.41604L-2.1202 -0C-1.73285 -0.0286924 -0.34127 -0.0286924 0.132155 -0.0286924C0.605579 -0.0286924 1.98281 -0.0286924 2.37016 -0L2.37016 -0.41604L1.92543 -0.41604C0.662964 -0.41604 0.619925 -0.588194 0.619925 -1.10466ZM0.619925 -1.10466" fill="#fff"/>
  </g>
 </g>
 <path d="M510.236 -0L510.236 -28.3465L538.583 -28.3465L538.583 -0L510.236 -0" stroke="black"/>
 <path d="M520.898 -9.55057L527.921 -9.55057"/>
 <g transform="matrix(1.000000,-0.000000,-0.000000,1.000000,524.409449,-9.550573)">
  <path d="M-2.92358 -0M2.91532 -4.59078C2.91532 -5.78152 2.84359 -6.94356 2.32712 -8.03387C1.73893 -9.2246 0.706003 -9.54022 0.00303899 -9.54022C-0.82904 -9.54022 -1.84762 -9.12418 -2.37843 -7.93345C-2.78012 -7.02964 -2.92358 -6.14017 -2.92358 -4.59078C-2.92358 -3.1992 -2.82316 -2.15193 -2.3067 -1.13335C-1.7472 -0.0430386 -0.757309 0.30127 -0.0113072 0.30127C1.23681 0.30127 1.95412 -0.444732 2.37016 -1.27681C2.88662 -2.35278 2.91532 -3.7587 2.91532 -4.59078ZM2.91532 -4.59078M-0.0113072 0.0143462C-0.470385 0.0143462 -1.40289 -0.243885 -1.67547 -1.80762C-1.83327 -2.66839 -1.83327 -3.7587 -1.83327 -4.76294C-1.83327 -5.93933 -1.83327 -7.00094 -1.60373 -7.84737C-1.35985 -8.80856 -0.628194 -9.2533 -0.0113072 -9.2533C0.533848 -9.2533 1.36593 -8.92333 1.63851 -7.68956C1.82501 -6.87183 1.82501 -5.73848 1.82501 -4.76294C1.82501 -3.80174 1.82501 -2.71143 1.6672 -1.83631C1.39462 -0.258232 0.49081 0.0143462 -0.0113072 0.0143462ZM-0.0113072 0.0143462" fill="#000"/>
 </g>
 <path d="M425.197 28.3465L425.197 -0L453.543 -0L453.543 28.3465L425.197 28.3465" stroke="black"/>
 <path d="M435.858 18.7959L442.882 18.7959"/>
 <g transform="matrix(1.000000,-0.000000,-0.000000,1.000000,439.370079,18.795883)">
  <path d="M-2.92358 -0M2.91532 -4.59078C2.91532 -5.78152 2.84359 -6.94356 2.32712 -8.03387C1.73893 -9.2246 0.706003 -9.54022 0.00303899 -9.54022C-0.82904 -9.54022 -1.84762 -9.12418 -2.37843 -7.93345C-2.78012 -7.02964 -2.92358 -6.14017 -2.92358 -4.59078C-2.92358 -3.1992 -2.82316 -2.15193 -2.3067 -1.13335C-1.7472 -0.0430386 -0.757309 0.30127 -0.0113072 0.30127C1.23681 0.30127 1.95412 -0.444732 2.37016 -1.27681C2.88662 -2.35278 2.91532 -3.7587 2.91532 -4.59078ZM2.91532 -4.59078M-0.0113072 0.0143462C-0.470385 0.0143462 -1.40289 -0.243885 -1.67547 -1.80762C-1.83327 -2.66839 -1.83327 -3.7587 -1.83327 -4.76294C-1.83327 -5.93933 -1.83327 -7.00094 -1.60373 -7.84737C-1.35985 -8.80856 -0.628194 -9.2533 -0.0113072 -9.2533C0.533848 -9.2533 1.36593 -8.92333 1.63851 -7.68956C1.82501 -6.87183 1.82501 -5.73848 1.82501 -4.76294C1.82501 -3.80174 1.82501 -2.71143 1.6672 -1.83631C1.39462 -0.258232 0.49081 0.0143462 -0.0113072 0.0143462ZM-0.0113072 0.0143462" fill="#000"/>
 </g>
 <path d="M453.543 28.3465L453.543 -0L481.89 -0L481.89 28.3465L453.543 28.3465" stroke="black"/>
 <path d="M464.205 18.7959L471.228 18.7959"/>
 <g transform="matrix(1.000000,-0.000000,-0.000000,1.000000,467.716535,18.795883)">
  <path d="M-2.92358 -0M2.91532 -4.59078C2.91532 -5.78152 2.84359 -6.94356 2.32712 -8.03387C1.73893 -9.2246 0.706003 -9.54022 0.00303899 -9.54022C-0.82904 -9.54022 -1.84762 -9.12418 -2.37843 -7.93345C-2.78012 -7.02964 -2.92358 -6.14017 -2.92358 -4.59078C-2.92358 -3.1992 -2.82316 -2.15193 -2.3067 -1.13335C-1.7472 -0.0430386 -0.757309 0.30127 -0.0113072 0.30127C1.23681 0.30127 1.95412 -0.444732 2.37016 -1.27681C2.88662 -2.35278 2.91532 -3.7587 2.91532 -4.59078ZM2.91532 -4.59078M-0.0113072 0.0143462C-0.470385 0.0143462 -1.40289 -0.243885 -1.67547 -1.80762C-1.83327 -2.66839 -1.83327 -3.7587 -1.83327 -4.76294C-1.83327 -5.93933 -1.83327 -7.00094 -1.60373 -7.84737C-1.35985 -8.80856 -0.628194 -9.2533 -0.0113072 -9.2533C0.533848 -9.2533 1.36593 -8.92333 1.63851 -7.68956C1.82501 -6.87183 1.82501 -5.73848 1.82501 -4.76294C1.82501 -3.80174 1.82501 -2.71143 1.6672 -1.83631C1.39462 -0.258232 0.49081 0.0143462 -0.0113072 0.0143462ZM-0.0113072 0.0143462" fill="#000"/>
 </g>
 <path d="M481.89 28.3465L481.89 -0L510.236 -0L510.236 28.3465L481.89 28.3465" stroke="black" fill="#000"/>
 <path d="M492.551 18.7959L499.575 18.7959"/>
 <g>
  <g transform="matrix(1.000000,-0.000000,-0.000000,1.000000,496.062992,18.795883)">
   <path d="M-2.20628 -0M0.619925 -9.19591C0.619925 -9.52587 0.619925 -9.54022 0.333001 -9.54022C-0.0113072 -9.15287 -0.728617 -8.62206 -2.20628 -8.62206L-2.20628 -8.20602C-1.87631 -8.20602 -1.159 -8.20602 -0.369962 -8.57903L-0.369962 -1.10466C-0.369962 -0.588194 -0.413001 -0.41604 -1.67547 -0.41604L-2.1202 -0.41604L-2.1202 -0C-1.73285 -0.0286924 -0.34127 -0.0286924 0.132155 -0.0286924C0.605579 -0.0286924 1.98281 -0.0286924 2.37016 -0L2.37016 -0.41604L1.92543 -0.41604C0.662964 -0.41604 0.619925 -0.588194 0.619925 -1.10466ZM0.619925 -1.10466" fill="#fff"/>
  </g>
 </g>
 <path d="M510.236 28.3465L510.236 -0L538.583 -0L538.583 28.3465L510.236 28.3465" stroke="black"/>
 <path d="M520.898 18.7959L527.921 18.7959"/>
 <g transform="matrix(1.000000,-0.000000,-0.000000,1.000000,524.409449,18.795883)">
  <path d="M-2.92358 -0M2.91532 -4.59078C2.91532 -5.78152 2.84359 -6.94356 2.32712 -8.03387C1.73893 -9.2246 0.706003 -9.54022 0.00303899 -9.54022C-0.82904 -9.54022 -1.84762 -9.12418 -2.37843 -7.93345C-2.78012 -7.02964 -2.92358 -6.14017 -2.92358 -4.59078C-2.92358 -3.1992 -2.82316 -2.15193 -2.3067 -1.13335C-1.7472 -0.0430386 -0.757309 0.30127 -0.0113072 0.30127C1.23681 0.30127 1.95412 -0.444732 2.37016 -1.27681C2.88662 -2.35278 2.91532 -3.7587 2.91532 -4.59078ZM2.91532 -4.59078M-0.0113072 0.0143462C-0.470385 0.0143462 -1.40289 -0.243885 -1.67547 -1.80762C-1.83327 -2.66839 -1.83327 -3.7587 -1.83327 -4.76294C-1.83327 -5.93933 -1.83327 -7.00094 -1.60373 -7.84737C-1.35985 -8.80856 -0.628194 -9.2533 -0.0113072 -9.2533C0.533848 -9.2533 1.36593 -8.92333 1.63851 -7.68956C1.82501 -6.87183 1.82501 -5.73848 1.82501 -4.76294C1.82501 -3.80174 1.82501 -2.71143 1.6672 -1.83631C1.39462 -0.258232 0.49081 0.0143462 -0.0113072 0.0143462ZM-0.0113072 0.0143462" fill="#000"/>
 </g>
 <path d="M425.197 56.6929L425.197 28.3465L453.543 28.3465L453.543 56.6929L425.197 56.6929" stroke="black"/>
 <path d="M435.858 47.1423L442.882 47.1423"/>
 <g transform="matrix(1.000000,-0.000000,-0.000000,1.000000,439.370079,47.142340)">
  <path d="M-2.92358 -0M2.91532 -4.59078C2.91532 -5.78152 2.84359 -6.94356 2.32712 -8.03387C1.73893 -9.2246 0.706003 -9.54022 0.00303899 -9.54022C-0.82904 -9.54022 -1.84762 -9.12418 -2.37843 -7.93345C-2.78012 -7.02964 -2.92358 -6.14017 -2.92358 -4.59078C-2.92358 -3.1992 -2.82316 -2.15193 -2.3067 -1.13335C-1.7472 -0.0430386 -0.757309 0.30127 -0.0113072 0.30127C1.23681 0.30127 1.95412 -0.444732 2.37016 -1.27681C2.88662 -2.35278 2.91532 -3.7587 2.91532 -4.59078ZM2.91532 -4.59078M-0.0113072 0.0143462C-0.470385 0.0143462 -1.40289 -0.243885 -1.67547 -1.80762C-1.83327 -2.66839 -1.83327 -3.7587 -1.83327 -4.76294C-1.83327 -5.93933 -1.83327 -7.00094 -1.60373 -7.84737C-1.35985 -8.80856 -0.628194 -9.2533 -0.0113072 -9.2533C0.533848 -9.2533 1.36593 -8.92333 1.63851 -7.68956C1.82501 -6.87183 1.82501 -5.73848 1.82501 -4.76294C1.82501 -3.80174 1.82501 -2.71143 1.6672 -1.83631C1.39462 -0.258232 0.49081 0.0143462 -0.0113072 0.0143462ZM-0.0113072 0.0143462" fill="#000"/>
 </g>
 <path d="M453.543 56.6929L453.543 28.3465L481.89 28.3465L481.89 56.6929L453.543 56.6929" stroke="black" fill="#000"/>
 <path d="M464.205 47.1423L471.228 47.1423"/>
 <g>
  <g transform="matrix(1.000000,-0.000000,-0.000000,1.000000,467.716535,47.142340)">
   <path d="M-2.20628 -0M0.619925 -9.19591C0.619925 -9.52587 0.619925 -9.54022 0.333001 -9.54022C-0.0113072 -9.15287 -0.728617 -8.62206 -2.20628 -8.62206L-2.20628 -8.20602C-1.87631 -8.20602 -1.159 -8.20602 -0.369962 -8.57903L-0.369962 -1.10466C-0.369962 -0.588194 -0.413001 -0.41604 -1.67547 -0.41604L-2.1202 -0.41604L-2.1202 -0C-1.73285 -0.0286924 -0.34127 -0.0286924 0.132155 -0.0286924C0.605579 -0.0286924 1.98281 -0.0286924 2.37016 -0L2.37016 -0.41604L1.92543 -0.41604C0.662964 -0.41604 0.619925 -0.588194 0.619925 -1.10466ZM0.619925 -1.10466" fill="#fff"/>
  </g>
 </g>
 <path d="M481.89 56.6929L481.89 28.3465L510.236 28.3465L510.236 56.6929L481.89 56.6929" stroke="black" fill="#000"/>
 <path d="M492.551 47.1423L499.575 47.1423"/>
 <g>
  <g transform="matrix(1.000000,-0.000000,-0.000000,1.000000,496.062992,47.142340)">
   <path d="M-2.20628 -0M0.619925 -9.19591C0.619925 -9.52587 0.619925 -9.54022 0.333001 -9.54022C-0.0113072 -9.15287 -0.728617 -8.62206 -2.20628 -8.62206L-2.20628 -8.20602C-1.87631 -8.20602 -1.159 -8.20602 -0.369962 -8.57903L-0.369962 -1.10466C-0.369962 -0.588194 -0.413001 -0.41604 -1.67547 -0.41604L-2.1202 -0.41604L-2.1202 -0C-1.73285 -0.0286924 -0.34127 -0.0286924 0.132155 -0.0286924C0.605579 -0.0286924 1.98281 -0.0286924 2.37016 -0L2.37016 -0.41604L1.92543 -0.41604C0.662964 -0.41604 0.619925 -0.588194 0.619925 -1.10466ZM0.619925 -1.10466" fill="#fff"/>
  </g>
 </g>
 <path d="M510.236 56.6929L510.236 28.3465L538.583 28.3465L538.583 56.6929L510.236 56.6929" stroke="black"/>
 <path d="M520.898 47.1423L527.921 47.1423"/>
 <g transform="matrix(1.000000,-0.000000,-0.000000,1.000000,524.409449,47.142340)">
  <path d="M-2.92358 -0M2.91532 -4.59078C2.91532 -5.78152 2.84359 -6.94356 2.32712 -8.03387C1.73893 -9.2246 0.706003 -9.54022 0.00303899 -9.54022C-0.82904 -9.54022 -1.84762 -9.12418 -2.37843 -7.93345C-2.78012 -7.02964 -2.92358 -6.14017 -2.92358 -4.59078C-2.92358 -3.1992 -2.82316 -2.15193 -2.3067 -1.13335C-1.7472 -0.0430386 -0.757309 0.30127 -0.0113072 0.30127C1.23681 0.30127 1.95412 -0.444732 2.37016 -1.27681C2.88662 -2.35278 2.91532 -3.7587 2.91532 -4.59078ZM2.91532 -4.59078M-0.0113072 0.0143462C-0.470385 0.0143462 -1.40289 -0.243885 -1.67547 -1.80762C-1.83327 -2.66839 -1.83327 -3.7587 -1.83327 -4.76294C-1.83327 -5.93933 -1.83327 -7.00094 -1.60373 -7.84737C-1.35985 -8.80856 -0.628194 -9.2533 -0.0113072 -9.2533C0.533848 -9.2533 1.36593 -8.92333 1.63851 -7.68956C1.82501 -6.87183 1.82501 -5.73848 1.82501 -4.76294C1.82501 -3.80174 1.82501 -2.71143 1.6672 -1.83631C1.39462 -0.258232 0.49081 0.0143462 -0.0113072 0.0143462ZM-0.0113072 0.0143462" fill="#000"/>
 </g>
 <path d="M425.197 85.0394L425.197 56.6929L453.543 56.6929L453.543 85.0394L425.197 85.0394" stroke="black"/>
 <path d="M435.858 75.4888L442.882 75.4888"/>
 <g transform="matrix(1.000000,-0.000000,-0.000000,1.000000,439.370079,75.488797)">
  <path d="M-2.92358 -0M2.91532 -4.59078C2.91532 -5.78152 2.84359 -6.94356 2.32712 -8.03387C1.73893 -9.2246 0.706003 -9.54022 0.00303899 -9.54022C-0.82904 -9.54022 -1.84762 -9.12418 -2.37843 -7.93345C-2.78012 -7.02964 -2.92358 -6.14017 -2.92358 -4.59078C-2.92358 -3.1992 -2.82316 -2.15193 -2.3067 -1.13335C-1.7472 -0.0430386 -0.757309 0.30127 -0.0113072 0.30127C1.23681 0.30127 1.95412 -0.444732 2.37016 -1.27681C2.88662 -2.35278 2.91532 -3.7587 2.91532 -4.59078ZM2.91532 -4.59078M-0.0113072 0.0143462C-0.470385 0.0143462 -1.40289 -0.243885 -1.67547 -1.80762C-1.83327 -2.66839 -1.83327 -3.7587 -1.83327 -4.76294C-1.83327 -5.93933 -1.83327 -7.00094 -1.60373 -7.84737C-1.35985 -8.80856 -0.628194 -9.2533 -0.0113072 -9.2533C0.533848 -9.2533 1.36593 -8.92333 1.63851 -7.68956C1.82501 -6.87183 1.82501 -5.73848 1.82501 -4.76294C1.82501 -3.80174 1.82501 -2.71143 1.6672 -1.83631C1.39462 -0.258232 0.49081 0.0143462 -0.0113072 0.0143462ZM-0.0113072 0.0143462" fill="#000"/>
 </g>
 <path d="M453.543 85.0394L453.543 56.6929L481.89 56.6929L481.89 85.0394L453.543 85.0394" stroke="black"/>
 <path d="M464.205 75.4888L471.228 75.4888"/>
 <g transform="matrix(1.000000,-0.000000,-0.000000,1.000000,467.716535,75.488797)">
  <path d="M-2.92358 -0M2.91532 -4.59078C2.91532 -5.78152 2.84359 -6.94356 2.32712 -8.03387C1.73893 -9.2246 0.706003 -9.54022 0.00303899 -9.54022C-0.82904 -9.54022 -1.84762 -9.12418 -2.37843 -7.93345C-2.78012 -7.02964 -2.92358 -6.14017 -2.92358 -4.59078C-2.92358 -3.1992 -2.82316 -2.15193 -2.3067 -1.13335C-1.7472 -0.0430386 -0.757309 0.30127 -0.0113072 0.30127C1.23681 0.30127 1.95412 -0.444732 2.37016 -1.27681C2.88662 -2.35278 2.91532 -3.7587 2.91532 -4.59078ZM2.91532 -4.59078M-0.0113072 0.0143462C-0.470385 0.0143462 -1.40289 -0.243885 -1.67547 -1.80762C-1.83327 -2.66839 -1.83327 -3.7587 -1.83327 -4.76294C-1.83327 -5.93933 -1.83327 -7.00094 -1.60373 -7.84737C-1.35985 -8.80856 -0.628194 -9.2533 -0.0113072 -9.2533C0.533848 -9.2533 1.36593 -8.92333 1.63851 -7.68956C1.82501 -6.87183 1.82501 -5.73848 1.82501 -4.76294C1.82501 -3.80174 1.82501 -2.71143 1.6672 -1.83631C1.39462 -0.258232 0.49081 0.0143462 -0.0113072 0.0143462ZM-0.0113072 0.0143462" fill="#000"/>
 </g>
 <path d="M481.89 85.0394L481.89 56.6929L510.236 56.6929L510.236 85.0394L481.89 85.0394" stroke="black"/>
 <path d="M492.551 75.4888L499.575 75.4888"/>
 <g transform="matrix(1.000000,-0.000000,-0.000000,1.000000,496.062992,75.488797)">
  <path d="M-2.92358 -0M2.91532 -4.59078C2.91532 -5.78152 2.84359 -6.94356 2.32712 -8.03387C1.73893 -9.2246 0.706003 -9.54022 0.00303899 -9.54022C-0.82904 -9.54022 -1.84762 -9.12418 -2.37843 -7.93345C-2.78012 -7.02964 -2.92358 -6.14017 -2.92358 -4.59078C-2.92358 -3.1992 -2.82316 -2.15193 -2.3067 -1.13335C-1.7472 -0.0430386 -0.757309 0.30127 -0.0113072 0.30127C1.23681 0.30127 1.95412 -0.444732 2.37016 -1.27681C2.88662 -2.35278 2.91532 -3.7587 2.91532 -4.59078ZM2.91532 -4.59078M-0.0113072 0.0143462C-0.470385 0.0143462 -1.40289 -0.243885 -1.67547 -1.80762C-1.83327 -2.66839 -1.83327 -3.7587 -1.83327 -4.76294C-1.83327 -5.93933 -1.83327 -7.00094 -1.60373 -7.84737C-1.35985 -8.80856 -0.628194 -9.2533 -0.0113072 -9.2533C0.533848 -9.2533 1.36593 -8.92333 1.63851 -7.68956C1.82501 -6.87183 1.82501 -5.73848 1.82501 -4.76294C1.82501 -3.80174 1.82501 -2.71143 1.6672 -1.83631C1.39462 -0.258232 0.49081 0.0143462 -0.0113072 0.0143462ZM-0.0113072 0.0143462" fill="#000"/>
 </g>
 <path d="M510.236 85.0394L510.236 56.6929L538.583 56.6929L538.583 85.0394L510.236 85.0394" stroke="black"/>
 <path d="M520.898 75.4888L527.921 75.4888"/>
 <g transform="matrix(1.000000,-0.000000,-0.000000,1.000000,524.409449,75.488797)">
  <path d="M-2.92358 -0M2.91532 -4.59078C2.91532 -5.78152 2.84359 -6.94356 2.32712 -8.03387C1.73893 -9.2246 0.706003 -9.54022 0.00303899 -9.54022C-0.82904 -9.54022 -1.84762 -9.12418 -2.37843 -7.93345C-2.78012 -7.02964 -2.92358 -6.14017 -2.92358 -4.59078C-2.92358 -3.1992 -2.82316 -2.15193 -2.3067 -1.13335C-1.7472 -0.0430386 -0.757309 0.30127 -0.0113072 0.30127C1.23681 0.30127 1.95412 -0.444732 2.37016 -1.27681C2.88662 -2.35278 2.91532 -3.7587 2.91532 -4.59078ZM2.91532 -4.59078M-0.0113072 0.0143462C-0.470385 0.0143462 -1.40289 -0.243885 -1.67547 -1.80762C-1.83327 -2.66839 -1.83327 -3.7587 -1.83327 -4.76294C-1.83327 -5.93933 -1.83327 -7.00094 -1.60373 -7.84737C-1.35985 -8.80856 -0.628194 -9.2533 -0.0113072 -9.2533C0.533848 -9.2533 1.36593 -8.92333 1.63851 -7.68956C1.82501 -6.87183 1.82501 -5.73848 1.82501 -4.76294C1.82501 -3.80174 1.82501 -2.71143 1.6672 -1.83631C1.39462 -0.258232 0.49081 0.0143462 -0.0113072 0.0143462ZM-0.0113072 0.0143462" fill="#000"/>
 </g>
 <path d="M460.131 99.6355L503.648 99.6355"/>
 <g transform="matrix(1.000000,-0.000000,-0.000000,1.000000,481.889764,99.635470)">
  <path d="M-21.0526 -0M-14.5796 -2.66839L-14.8895 -2.66839C-15.0617 -1.4461 -15.1994 -1.23951 -15.2682 -1.13622C-15.3543 -0.998496 -16.5938 -0.998496 -16.8348 -0.998496L-20.1402 -0.998496C-19.5205 -1.6699 -18.3154 -2.89219 -16.8521 -4.30386C-15.8019 -5.30236 -14.5796 -6.47301 -14.5796 -8.17733C-14.5796 -10.2088 -16.1979 -11.3794 -18.0055 -11.3794C-19.8992 -11.3794 -21.0526 -9.70951 -21.0526 -8.16012C-21.0526 -7.48872 -20.5534 -7.40264 -20.3468 -7.40264C-20.1746 -7.40264 -19.6582 -7.50593 -19.6582 -8.10847C-19.6582 -8.64215 -20.1058 -8.79709 -20.3468 -8.79709C-20.4501 -8.79709 -20.5534 -8.77987 -20.6222 -8.74544C-20.2952 -10.2088 -19.2967 -10.9318 -18.2465 -10.9318C-16.7488 -10.9318 -15.7675 -9.74394 -15.7675 -8.17733C-15.7675 -6.67959 -16.6455 -5.38843 -17.6268 -4.26943L-21.0526 -0.395955L-21.0526 -0L-14.9928 -0ZM-14.9928 -0" fill="#000"/>
 </g>
 <g transform="matrix(1.000000,-0.000000,-0.000000,1.000000,481.889764,99.635470)">
  <path d="M-13.1573 -0M-6.68432 -2.66839L-6.9942 -2.66839C-7.16635 -1.4461 -7.30408 -1.23951 -7.37294 -1.13622C-7.45902 -0.998496 -8.69853 -0.998496 -8.93954 -0.998496L-12.2449 -0.998496C-11.6252 -1.6699 -10.4201 -2.89219 -8.95676 -4.30386C-7.90662 -5.30236 -6.68432 -6.47301 -6.68432 -8.17733C-6.68432 -10.2088 -8.30257 -11.3794 -10.1102 -11.3794C-12.0039 -11.3794 -13.1573 -9.70951 -13.1573 -8.16012C-13.1573 -7.48872 -12.6581 -7.40264 -12.4515 -7.40264C-12.2793 -7.40264 -11.7629 -7.50593 -11.7629 -8.10847C-11.7629 -8.64215 -12.2105 -8.79709 -12.4515 -8.79709C-12.5548 -8.79709 -12.6581 -8.77987 -12.7269 -8.74544C-12.3998 -10.2088 -11.4014 -10.9318 -10.3512 -10.9318C-8.85347 -10.9318 -7.87219 -9.74394 -7.87219 -8.17733C-7.87219 -6.67959 -8.75017 -5.38843 -9.73145 -4.26943L-13.1573 -0.395955L-13.1573 -0L-7.09749 -0ZM-7.09749 -0" fill="#000"/>
 </g>
 <g transform="matrix(1.000000,-0.000000,-0.000000,1.000000,481.889764,99.635470)">
  <path d="M-5.31367 -0M-4.14302 -5.93933C-4.14302 -10.0538 -2.21489 -10.9835 -1.09589 -10.9835C-0.734361 -10.9835 0.143627 -10.9146 0.487935 -10.2432C0.212488 -10.2432 -0.303975 -10.2432 -0.303975 -9.64065C-0.303975 -9.17583 0.0747648 -9.02089 0.315781 -9.02089C0.47072 -9.02089 0.935537 -9.08975 0.935537 -9.67508C0.935537 -10.7597 0.0747648 -11.3794 -1.1131 -11.3794C-3.16174 -11.3794 -5.31367 -9.24469 -5.31367 -5.44008C-5.31367 -0.757479 -3.36832 0.275447 -1.99109 0.275447C-0.32119 0.275447 1.26263 -1.2223 1.26263 -3.52917C1.26263 -5.6811 -0.13182 -7.2477 -1.8878 -7.2477C-2.93794 -7.2477 -3.71263 -6.55908 -4.14302 -5.354ZM-4.14302 -5.354M-1.99109 -0.137724C-4.10859 -0.137724 -4.10859 -3.30536 -4.10859 -3.94234C-4.10859 -5.18185 -3.52326 -6.97225 -1.92223 -6.97225C-1.62956 -6.97225 -0.786007 -6.97225 -0.217898 -5.78439C0.0919803 -5.11299 0.0919803 -4.40715 0.0919803 -3.54638C0.0919803 -2.61675 0.0919803 -1.92813 -0.269544 -1.23951C-0.648284 -0.533679 -1.19918 -0.137724 -1.99109 -0.137724ZM-1.99109 -0.137724" fill="#000"/>
 </g>
 <g transform="matrix(1.000000,-0.000000,-0.000000,1.000000,481.889764,99.635470)">
  <path d="M2.58164 -0M9.15793 -5.52616C9.15793 -6.5763 9.14072 -8.3667 8.41767 -9.74394C7.7807 -10.949 6.76499 -11.3794 5.86979 -11.3794C5.04344 -11.3794 3.9933 -11.0007 3.33912 -9.76115C2.6505 -8.47 2.58164 -6.86896 2.58164 -5.52616C2.58164 -4.54488 2.59885 -3.04713 3.13253 -1.73876C3.87279 0.0344309 5.19838 0.275447 5.86979 0.275447C6.6617 0.275447 7.86678 -0.0516463 8.57261 -1.68711C9.08907 -2.87498 9.15793 -4.26943 9.15793 -5.52616ZM9.15793 -5.52616M5.86979 -0C4.768 -0 4.11381 -0.946849 3.87279 -2.25522C3.68342 -3.27093 3.68342 -4.75146 3.68342 -5.71553C3.68342 -7.04112 3.68342 -8.1429 3.90722 -9.19305C4.23432 -10.6564 5.19838 -11.104 5.86979 -11.104C6.57562 -11.104 7.48804 -10.6391 7.81513 -9.22748C8.03893 -8.2462 8.05615 -7.09276 8.05615 -5.71553C8.05615 -4.59652 8.05615 -3.21929 7.84956 -2.20358C7.48804 -0.327093 6.47233 -0 5.86979 -0ZM5.86979 -0" fill="#000"/>
 </g>
 <g transform="matrix(1.000000,-0.000000,-0.000000,1.000000,481.889764,99.635470)">
  <path d="M10.7007 -0M19.4806 -10.5358C19.4806 -11.3105 19.67 -11.3105 20.8579 -11.3105L20.8579 -11.7581C20.3586 -11.7237 19.4462 -11.7237 18.9125 -11.7237C18.3788 -11.7237 17.4664 -11.7237 16.9672 -11.7581L16.9672 -11.3105C18.155 -11.3105 18.3444 -11.3105 18.3444 -10.5358L18.3444 -6.33528L13.2142 -6.33528L13.2142 -10.5358C13.2142 -11.3105 13.4036 -11.3105 14.5914 -11.3105L14.5914 -11.7581C14.0922 -11.7237 13.1798 -11.7237 12.6461 -11.7237C12.1124 -11.7237 11.2 -11.7237 10.7007 -11.7581L10.7007 -11.3105C11.8886 -11.3105 12.078 -11.3105 12.078 -10.5358L12.078 -1.2223C12.078 -0.447601 11.8886 -0.447601 10.7007 -0.447601L10.7007 -0C11.2 -0.0344309 12.1124 -0.0344309 12.6461 -0.0344309C13.1798 -0.0344309 14.0922 -0.0344309 14.5914 -0L14.5914 -0.447601C13.4036 -0.447601 13.2142 -0.447601 13.2142 -1.2223L13.2142 -5.88768L18.3444 -5.88768L18.3444 -1.2223C18.3444 -0.447601 18.155 -0.447601 16.9672 -0.447601L16.9672 -0C17.4664 -0.0344309 18.3788 -0.0344309 18.9125 -0.0344309C19.4462 -0.0344309 20.3586 -0.0344309 20.8579 -0L20.8579 -0.447601C19.67 -0.447601 19.4806 -0.447601 19.4806 -1.2223ZM19.4806 -1.2223" fill="#000"/>
 </g>
</svg>
